<?xml version="1.0" encoding="utf-8"?>
<!-- Generator: Adobe Illustrator 16.0.4, SVG Export Plug-In . SVG Version: 6.00 Build 0)  -->
<!DOCTYPE svg PUBLIC "-//W3C//DTD SVG 1.1//EN" "http://www.w3.org/Graphics/SVG/1.1/DTD/svg11.dtd">
<svg version="1.1" xmlns="http://www.w3.org/2000/svg" xmlns:xlink="http://www.w3.org/1999/xlink" x="0px" y="0px"
	 width="40.013px" height="40.013px" viewBox="0 0 40.013 40.013" enable-background="new 0 0 40.013 40.013" xml:space="preserve">
<g id="Bounding_Box">
	<rect x="0.006" y="0.006" fill="#FFFFFF" stroke="#FFFFFF" stroke-width="0.0129" width="40" height="40"/>
</g>
<g id="Utilities" display="none">
	<g id="Outer_Circle" display="inline">
		<circle fill="#8B5500" cx="268.142" cy="294.892" r="233.772"/>
	</g>
	<circle id="Inner_Circle_1_" display="inline" fill="#0063E7" cx="268.143" cy="294.892" r="187.018"/>
	<path id="Clipped_Hand_Outline" display="inline" fill="#00FFFF" d="M452.652,337.177l-7.206-19.872l-0.431-1.189l-0.944-0.841
		l-12.102-10.777l6.011-10.477l0.795-1.385l-0.155-1.59l-3.161-32.355l-0.14-1.426l-0.874-1.136l-2.184-2.838l-0.212-0.275
		l-0.248-0.244l-11.599-11.388l-0.414-0.406l-2.835,2.81l0.148-0.583l7.88-24.647l0.72-2.25l-1.282-1.985l-12.17-18.843l2.164-5.719
		l1.83-4.838l-4.897-1.665l-32.755-11.137l-0.782-0.266h-0.827h-2.619h-1.244l-1.1,0.583l-42.746,22.682l-1.021,0.511l-0.432,0.072
		l-24.083,2.656l-0.59-5.098l6.349-14.388c3.067-7.122,9.472-11.579,16.251-16.297c3.813-2.654,7.756-5.398,11.068-8.669
		c14.713-12.724,23.146-29.804,23.146-46.891c0-1.004-0.024-2.031-0.073-3.139c-0.011-0.239-0.026-0.467-0.041-0.695l-0.021-0.319
		c-0.041-0.697-0.087-1.396-0.148-2.09c-0.032-0.362-0.069-0.706-0.106-1.05l-0.015-0.138c-0.066-0.628-0.141-1.264-0.225-1.896
		c-0.054-0.406-0.112-0.809-0.173-1.211c-0.095-0.62-0.198-1.239-0.309-1.855l-0.027-0.149c-0.061-0.338-0.122-0.677-0.188-1.013
		c-0.13-0.654-0.27-1.29-0.413-1.923l-0.076-0.341c-0.053-0.235-0.105-0.47-0.162-0.704c-0.172-0.707-0.371-1.458-0.608-2.304
		l-0.041-0.154c-0.04-0.152-0.08-0.304-0.124-0.454c-0.269-0.924-0.569-1.879-0.892-2.832c-0.062-0.181-0.123-0.349-0.185-0.518
		l-0.088-0.243c-0.241-0.683-0.484-1.355-0.741-2.02c-0.103-0.263-0.203-0.508-0.304-0.752l-0.107-0.264
		c-0.236-0.579-0.475-1.153-0.725-1.721c-0.15-0.342-0.306-0.681-0.462-1.02c-0.271-0.589-0.528-1.13-0.795-1.668
		c-0.168-0.341-0.34-0.685-0.515-1.025c-0.283-0.551-0.573-1.088-0.867-1.623l-0.121-0.22c-0.136-0.248-0.271-0.495-0.411-0.739
		c-0.337-0.589-0.689-1.174-1.048-1.755l-0.131-0.218c-0.102-0.17-0.204-0.34-0.31-0.507c-0.532-0.84-1.066-1.647-1.59-2.401
		c-0.071-0.104-0.154-0.217-0.238-0.33l-0.062-0.085c-0.475-0.673-0.934-1.301-1.392-1.903c-0.14-0.182-0.278-0.357-0.417-0.531
		l-0.198-0.25c-0.396-0.503-0.784-0.99-1.184-1.467c-0.198-0.239-0.409-0.484-0.621-0.729l-0.1-0.116
		c-0.389-0.449-0.776-0.887-1.17-1.317c-0.261-0.285-0.518-0.562-0.777-0.836c-0.409-0.431-0.819-0.849-1.233-1.263l-0.119-0.119
		c-0.222-0.222-0.443-0.443-0.669-0.661c-0.451-0.435-0.914-0.862-1.382-1.286l-0.191-0.176c-0.172-0.158-0.343-0.316-0.519-0.47
		c-0.62-0.546-1.28-1.104-1.957-1.652c-0.064-0.057-0.144-0.123-0.225-0.188c-0.685-0.549-1.44-1.127-2.229-1.703
		c-0.165-0.121-0.34-0.243-0.516-0.364l-0.216-0.15c-0.527-0.374-1.06-0.745-1.601-1.102c-0.237-0.157-0.48-0.312-0.724-0.466
		l-0.181-0.114c-0.499-0.317-1.001-0.629-1.509-0.931c-0.322-0.192-0.646-0.38-0.973-0.566c-0.508-0.29-1.018-0.569-1.531-0.843
		c-0.328-0.174-0.657-0.349-0.989-0.518c-0.542-0.275-1.09-0.538-1.64-0.796l-0.26-0.123c-0.221-0.105-0.441-0.209-0.664-0.31
		c-0.602-0.27-1.238-0.54-2.01-0.852l-0.172-0.072c-0.147-0.062-0.295-0.124-0.444-0.183c-0.883-0.346-1.786-0.674-2.687-0.977
		c-0.158-0.053-0.317-0.102-0.476-0.15l-0.18-0.055c-0.789-0.255-1.452-0.458-2.087-0.637c-0.247-0.069-0.494-0.134-0.742-0.198
		l-0.25-0.065l-0.348-0.093c-0.046-0.012-0.092-0.025-0.138-0.037l-34.679-19.971l-3.241-1.866l-2.706,2.582l-60.731,57.942
		l-2.486,2.373l-2.486,2.372l1.323,3.171l1.323,3.171l24.031,57.589l0.522,1.602l-25.988,29.614l-23.442,18.496l-0.762,0.602
		l-0.482,0.843c-6.476,11.333-12.015,23.005-16.579,32.927l-0.02,0.042l-0.019,0.042l-28.345,64.758
		c-4.538,9.262-10.07,20.091-16.761,30.382l-12.511,15.432l-0.59,0.421h-0.444l-1.497,1.757l-0.074,0.087l-13.716,11.65
		c25.004,68.06,88.45,117.541,164.021,122.157l3.248-2.352l0.757-0.548l0.508-0.785l0.949-1.466l27.979-0.398l48.342,1.96
		l0.926,0.037l0.878-0.297l61.359-20.744l0.808-0.272l0.671-0.525l17.033-13.321l0.94-0.735l0.507-1.081l2.229-4.755l15.106-3.319
		l2.585-0.568l0.983-2.457l8.69-21.7l0.358-0.895v-0.964v-1.528v-1.055l-0.426-0.964l-13.975-31.662l-0.504-1.143l15.516-26.171
		l0.577-0.973l0.102-1.126l0.218-2.402l0.101-1.108L452.652,337.177z"/>
	<g display="inline">
		<path fill="#005B5C" d="M268.142,528.664C139.033,528.664,34.37,424,34.37,294.892h46.754
			c0,103.287,83.73,187.018,187.018,187.018V528.664z"/>
		<g id="Hand__x2B__Lines">
			<path fill="#5C002B" d="M447.734,341.284l-17.992,30.348l2.707,1.534l13.975,31.662v1.528l-8.69,21.7l-17.514,3.849l-3.275,6.987
				l-17.033,13.321l-61.359,20.744l-48.478-1.965l-30.79,0.438l-2.402,3.711l-35.593,25.768l-30.571,4.367L77.819,389.767
				l-5.449,17.395c-2.024-3.69-13.278-19.826-15.105-23.635l52.54-32.242l0.335-0.394h0.128l0.209-0.178l0.317-0.477l1.529-1.092
				l13.102-16.16c6.551-10.044,12.01-20.526,17.25-31.226l28.388-64.855c5.022-10.918,10.264-21.836,16.377-32.536l23.802-18.78
				l28.169-32.099l-1.469-4.5l-24.108-57.773l-1.323-3.171l2.486-2.372l60.731-57.942l35.265,20.309
				c0.379,0.091,0.751,0.198,1.127,0.297c0.302,0.079,0.604,0.154,0.903,0.238c0.64,0.18,1.273,0.377,1.904,0.581
				c0.199,0.064,0.401,0.121,0.601,0.188c0.826,0.278,1.645,0.575,2.454,0.892c0.19,0.075,0.376,0.158,0.565,0.235
				c0.616,0.25,1.229,0.505,1.834,0.777c0.285,0.128,0.566,0.266,0.851,0.399c0.503,0.236,1.005,0.477,1.501,0.729
				c0.304,0.154,0.604,0.314,0.905,0.474c0.472,0.251,0.939,0.508,1.403,0.772c0.299,0.17,0.596,0.342,0.892,0.519
				c0.466,0.277,0.927,0.564,1.385,0.855c0.277,0.176,0.556,0.35,0.83,0.532c0.496,0.328,0.983,0.668,1.469,1.012
				c0.224,0.158,0.451,0.311,0.672,0.472c0.699,0.51,1.389,1.035,2.064,1.577c0.064,0.051,0.125,0.106,0.188,0.158
				c0.611,0.496,1.214,1.003,1.806,1.525c0.221,0.194,0.435,0.396,0.651,0.593c0.43,0.39,0.855,0.782,1.273,1.185
				c0.244,0.235,0.482,0.476,0.722,0.715c0.383,0.382,0.762,0.769,1.135,1.162c0.241,0.255,0.479,0.512,0.717,0.771
				c0.364,0.399,0.723,0.804,1.077,1.213c0.225,0.26,0.45,0.52,0.67,0.784c0.368,0.44,0.727,0.89,1.083,1.342
				c0.19,0.243,0.386,0.482,0.573,0.728c0.442,0.581,0.873,1.173,1.295,1.771c0.089,0.125,0.183,0.246,0.27,0.372
				c0.505,0.727,0.993,1.467,1.469,2.218c0.141,0.223,0.272,0.452,0.41,0.676c0.33,0.536,0.655,1.075,0.969,1.623
				c0.167,0.291,0.326,0.587,0.488,0.881c0.272,0.495,0.541,0.993,0.801,1.497c0.163,0.317,0.322,0.637,0.48,0.958
				c0.246,0.498,0.484,0.999,0.718,1.504c0.149,0.326,0.299,0.651,0.443,0.979c0.231,0.526,0.452,1.058,0.67,1.593
				c0.127,0.312,0.257,0.622,0.38,0.937c0.239,0.618,0.465,1.244,0.687,1.872c0.083,0.236,0.173,0.469,0.254,0.707
				c0.294,0.869,0.571,1.747,0.829,2.633c0.054,0.184,0.099,0.372,0.15,0.557c0.198,0.705,0.389,1.414,0.563,2.13
				c0.078,0.322,0.146,0.647,0.221,0.971c0.134,0.589,0.264,1.18,0.382,1.776c0.07,0.36,0.135,0.722,0.2,1.083
				c0.103,0.573,0.199,1.149,0.287,1.728c0.057,0.372,0.11,0.743,0.16,1.117c0.078,0.588,0.146,1.179,0.209,1.772
				c0.039,0.363,0.079,0.726,0.112,1.091c0.057,0.646,0.1,1.296,0.138,1.948c0.019,0.314,0.043,0.626,0.058,0.942
				c0.043,0.967,0.068,1.938,0.068,2.917c0,16.942-8.803,32.251-21.545,43.219c-8.661,8.635-22.939,13.72-28.495,26.62
				l-6.898,15.631l1.318,11.389l29.165-3.217l1.31-0.219l1.746-0.873l42.801-22.711h2.619l32.755,11.137l-3.057,8.08l13.539,20.963
				l-8.517,26.64l4.959,1.262l-0.374-0.388l0.402,0.396h0.001l0.009,0.009l11.599,11.388l2.184,2.838l3.161,32.355l-7.746,13.502
				l-0.412,0.149l13.731,15.354l-12.446-13.976l13.976,12.446l7.206,19.872L447.734,341.284z"/>
		</g>
	</g>
	<path id="Bulb_Background__x28_stretched_x29_" display="inline" fill="#00D013" d="M246.182,160.476
		c20.657,4.741,34.881,13.418,46.422,26.625l5.42,5.384l6.898-15.631c5.556-12.9,19.834-17.985,28.495-26.62
		c12.742-10.967,21.545-26.276,21.545-43.219c0-28.84-18.809-52.96-43.967-58.977L275.729,27.73l-60.731,57.942l-2.486,2.372
		l1.323,3.171l24.108,57.773l1.469,4.5l1.608,5.693L246.182,160.476z"/>
	<path id="Bulb_Background__x28_normal_x29_" display="inline" fill="#FFCC4E" d="M310.995,48.039
		c25.158,6.016,43.967,30.137,43.967,58.977c0,16.942-8.803,32.251-21.545,43.219c-8.661,8.635-22.939,13.72-28.495,26.62
		l-6.898,15.631l-5.42-5.384c-11.541-13.207-25.765-21.883-46.422-26.625l-3.494-13.102L218.45,89.29l61.797-58.958L310.995,48.039z
		"/>
	<path id="Hand_Background__x28_no_bulb_x2C__no_lines_x29_" display="inline" fill="#1E00E7" d="M241.021,159.182l-1.608-5.693
		l-20.526,38.433l-0.436,0.873h-0.219l-18.779,23.583c-6.551,9.171-12.884,18.342-18.562,28.169l-34.938,60.05
		c-6.332,9.826-13.102,19.217-20.526,28.388l-13.102,16.16l-1.529,1.092l-0.436,0.654h-0.219l-32.754,38.433l113.331,115.952
		l30.571-4.367l35.593-25.768l2.402-3.711l75.812-4.955l58.483-24.962l6.551-5.459l33.411-12.884l9.389-17.688l-10.48-32.317
		l-6.552-3.713l17.469-30.135l-4.149-18.779l-14.53-16.248l6.888-13.013l-1.965-32.1l-1.528-2.402l-11.39-11.833l-4.988-1.269
		l8.517-26.64L406.68,196.07l-31.007-13.102l-45.498,18.78l-30.823,2.221l-1.329-11.484l-5.42-5.384
		c-11.541-13.207-25.765-21.883-46.422-26.625L241.021,159.182z"/>
	<path display="inline" fill="#C64948" d="M666.563,460.366H391.408l-24.657,8.336h295.645v119.717h-788.506V468.702H198.99
		c-6.185-2.463-12.204-5.252-18.043-8.336h-311.226c-2.302,0-4.168,1.866-4.168,4.168v128.053c0,2.302,1.866,4.168,4.168,4.168
		h796.842c2.302,0,4.168-1.866,4.168-4.168V464.534C670.731,462.232,668.865,460.366,666.563,460.366z"/>
	<rect id="Box_2_" x="-126.111" y="468.702" display="inline" fill="#9AFF00" width="788.506" height="119.717"/>
</g>
<g id="Circle_-_Bottom">
	<g id="Large_Patches" display="none">
		<path display="inline" fill="#ABBD7F" d="M106.261,347.735l0.074-0.087l1.497-1.757h0.444l0.59-0.421l12.511-15.432
			c6.69-10.291,12.223-21.12,16.761-30.382l28.345-64.758l0.019-0.042l0.02-0.042c4.564-9.922,10.103-21.594,16.579-32.927
			l0.482-0.843l0.762-0.602l23.442-18.496l25.988-29.614l-0.522-1.602l-15.063-36.098c-79.032,21.854-137.064,94.274-137.064,180.26
			c0,22.666,4.034,44.389,11.42,64.493L106.261,347.735z"/>
		<path display="inline" fill="#ABBD7F" d="M437.023,371.147l0.946,2.146c2.67-5.773,5.059-11.701,7.138-17.774l-8.588,14.486
			L437.023,371.147z"/>
		<path display="inline" fill="#ABBD7F" d="M336.815,153.906c-3.312,3.271-7.255,6.015-11.068,8.669
			c-6.779,4.719-13.184,9.175-16.251,16.297l-6.349,14.388l0.59,5.098l24.083-2.656l0.432-0.072l1.021-0.511l42.746-22.682
			l1.1-0.583h1.244h2.619h0.827l0.782,0.266l32.755,11.137l4.897,1.665l-1.83,4.838l-2.164,5.719l12.17,18.843l1.282,1.985
			l-0.72,2.25l-7.88,24.647l-0.148,0.583l2.835-2.81l0.414,0.406l11.599,11.388l0.248,0.244l0.212,0.275l2.184,2.838l0.874,1.136
			l0.14,1.426l3.161,32.355l0.155,1.59l-0.795,1.385l-6.011,10.477l12.102,10.777l0.944,0.841l0.431,1.189l5.774,15.924
			c2.578-12.375,3.94-25.196,3.94-38.337c0-71.859-40.536-134.241-99.981-165.558C351.252,138.375,345.011,146.817,336.815,153.906z
			"/>
		<path display="inline" fill="#ABBD7F" d="M290.007,475.994l-27.979,0.398l-0.949,1.466l-0.508,0.785l-0.757,0.548l-3.248,2.352
			c-12.977-0.793-25.597-2.908-37.726-6.214c15.709,4.282,32.236,6.581,49.302,6.581c14.904,0,29.397-1.753,43.294-5.047
			L290.007,475.994z"/>
	</g>
	<g>
		<path d="M26.484,5.448c0.014,0.028,0.027,0.057,0.042,0.086c0.011,0.026,0.023,0.052,0.035,0.078
			c0.019,0.043,0.037,0.087,0.056,0.131l0.008,0.02c0.007,0.019,0.015,0.038,0.023,0.058c0.019,0.05,0.038,0.101,0.056,0.153
			l0.007,0.019c0.004,0.013,0.009,0.026,0.014,0.04c0.024,0.073,0.048,0.146,0.068,0.215c0.003,0.012,0.007,0.023,0.01,0.035
			l0.003,0.012c0.018,0.064,0.033,0.122,0.046,0.176c0.004,0.018,0.008,0.035,0.012,0.054L26.87,6.55
			c0.011,0.048,0.021,0.097,0.031,0.146c0.005,0.026,0.01,0.052,0.014,0.078l0.002,0.011c0.008,0.047,0.016,0.094,0.023,0.142
			c0.004,0.03,0.009,0.061,0.013,0.092c0.006,0.048,0.012,0.096,0.017,0.145l0.001,0.01c0.003,0.027,0.006,0.052,0.008,0.081
			c0.005,0.053,0.008,0.106,0.011,0.159l0.002,0.024c0,0.017,0.002,0.035,0.002,0.053C27,7.575,27.001,7.653,27.001,7.73
			c0,0.577-0.126,1.152-0.364,1.701c4.529,2.385,7.618,7.138,7.618,12.613c0,1.001-0.104,1.979-0.3,2.921l0.109,0.301l0.029,0.079
			l-0.008,0.085l-0.016,0.183l-0.008,0.085l-0.043,0.074l-0.528,0.891c-0.158,0.462-0.34,0.914-0.544,1.354l0.994,2.249l0.032,0.074
			v0.08v0.117v0.073l-0.027,0.068l-0.662,1.653l-0.075,0.187l-0.197,0.043l-1.151,0.253l-0.169,0.363L31.65,33.26l-0.072,0.056
			l-1.297,1.015l-0.052,0.04l-0.061,0.021l-4.675,1.58l-0.067,0.023l-0.071-0.003l-2.05-0.083c-1.059,0.25-2.163,0.385-3.298,0.385
			c-1.3,0-2.56-0.175-3.757-0.502c-0.001,0-0.003,0-0.004,0c-0.333-0.091-0.66-0.194-0.982-0.308
			c-0.006-0.002-0.012-0.004-0.018-0.006c-0.317-0.112-0.63-0.236-0.936-0.37c-0.011-0.004-0.021-0.009-0.032-0.013
			c-0.301-0.133-0.598-0.275-0.888-0.428c-0.015-0.008-0.031-0.017-0.046-0.024c-0.211-0.112-0.42-0.229-0.625-0.352
			c-0.009-0.005-0.018-0.01-0.027-0.015c-0.062-0.037-0.124-0.075-0.185-0.113c-0.021-0.012-0.04-0.025-0.061-0.038
			c-0.19-0.12-0.377-0.243-0.561-0.371c-0.019-0.014-0.039-0.026-0.058-0.04c-0.055-0.038-0.109-0.078-0.163-0.116
			c-0.025-0.018-0.05-0.036-0.074-0.054c-0.054-0.04-0.107-0.079-0.16-0.119c-0.005-0.003-0.01-0.007-0.014-0.011
			c-0.112-0.084-0.223-0.17-0.331-0.258c-0.027-0.021-0.053-0.042-0.078-0.062c-0.048-0.039-0.095-0.078-0.142-0.118
			c-0.029-0.024-0.057-0.048-0.086-0.072c-0.046-0.039-0.092-0.079-0.138-0.119c-0.016-0.014-0.032-0.028-0.048-0.042
			c-0.09-0.079-0.179-0.16-0.268-0.241c-0.03-0.028-0.061-0.057-0.092-0.085c-0.041-0.039-0.082-0.078-0.122-0.117
			c-0.032-0.03-0.064-0.062-0.095-0.092C9.98,32.167,9.94,32.129,9.901,32.09C9.84,32.028,9.78,31.967,9.72,31.904
			c-0.036-0.038-0.071-0.075-0.107-0.113c-0.033-0.036-0.066-0.072-0.099-0.107c-0.036-0.038-0.07-0.076-0.105-0.115
			c-0.034-0.038-0.068-0.077-0.102-0.115c-0.032-0.036-0.064-0.073-0.096-0.11c-0.059-0.067-0.116-0.136-0.173-0.205
			c-0.03-0.036-0.06-0.073-0.09-0.11c-0.034-0.042-0.068-0.084-0.102-0.126c-0.03-0.038-0.06-0.076-0.089-0.114
			c-0.036-0.046-0.072-0.092-0.107-0.139c-0.027-0.036-0.055-0.072-0.083-0.108c-0.052-0.071-0.104-0.143-0.156-0.215
			c-0.025-0.036-0.051-0.072-0.076-0.108c-0.033-0.048-0.066-0.096-0.1-0.144C8.209,30.038,8.184,30,8.159,29.963
			c-0.037-0.055-0.074-0.111-0.109-0.167c-0.024-0.037-0.048-0.074-0.072-0.111c-0.045-0.071-0.09-0.143-0.135-0.215
			c-0.021-0.036-0.043-0.072-0.065-0.109c-0.031-0.052-0.062-0.105-0.093-0.158c-0.022-0.037-0.043-0.074-0.064-0.111
			c-0.037-0.064-0.073-0.129-0.109-0.194C7.491,28.86,7.47,28.823,7.45,28.786c-0.038-0.071-0.076-0.142-0.112-0.213
			c-0.019-0.037-0.038-0.074-0.057-0.11c-0.028-0.056-0.057-0.113-0.085-0.17c-0.018-0.037-0.035-0.074-0.053-0.111
			c-0.037-0.076-0.072-0.152-0.107-0.229c-0.016-0.034-0.031-0.068-0.046-0.103c-0.031-0.071-0.062-0.141-0.093-0.213
			c-0.016-0.038-0.032-0.075-0.047-0.113c-0.025-0.061-0.05-0.121-0.074-0.182c-0.015-0.037-0.03-0.073-0.044-0.11
			c-0.036-0.091-0.071-0.182-0.104-0.273l0,0c-0.563-1.532-0.87-3.187-0.87-4.914c0-6.551,4.422-12.069,10.442-13.734l-0.683-1.637
			l-0.101-0.242l-0.101-0.241l0.189-0.181l0.189-0.181l1.427-1.361C8.656,5.846,2.195,13.19,2.195,22.044
			c0,9.837,7.975,17.811,17.812,17.811c9.836,0,17.811-7.974,17.811-17.811C37.817,14.493,33.118,8.04,26.484,5.448z"/>
	</g>
	<g>
		<path display="none" d="M26.484,5.448c0.014,0.028,0.027,0.057,0.042,0.086c0.011,0.026,0.023,0.052,0.035,0.078
			c0.019,0.043,0.037,0.087,0.056,0.131l0.008,0.02c0.007,0.019,0.015,0.038,0.023,0.058c0.019,0.05,0.038,0.101,0.056,0.153
			l0.007,0.019c0.004,0.013,0.009,0.026,0.014,0.04c0.024,0.073,0.048,0.146,0.068,0.215c0.003,0.012,0.007,0.023,0.01,0.035
			l0.003,0.012c0.018,0.064,0.033,0.122,0.046,0.176c0.004,0.018,0.008,0.035,0.012,0.054L26.87,6.55
			c0.011,0.048,0.021,0.097,0.031,0.146c0.005,0.026,0.01,0.052,0.014,0.078l0.002,0.011c0.008,0.047,0.016,0.094,0.023,0.142
			c0.004,0.03,0.009,0.061,0.013,0.092c0.006,0.048,0.012,0.096,0.017,0.145l0.001,0.01c0.003,0.027,0.006,0.052,0.008,0.081
			c0.005,0.053,0.008,0.106,0.011,0.159l0.002,0.024c0,0.017,0.002,0.035,0.002,0.053C27,7.575,27.001,7.653,27.001,7.73
			c0,0.577-0.126,1.152-0.364,1.701c4.529,2.385,7.618,7.138,7.618,12.613c0,1.001-0.104,1.979-0.3,2.921l0.109,0.301l0.029,0.079
			l-0.008,0.085l-0.016,0.183l-0.008,0.085l-0.043,0.074l-0.528,0.891c-0.158,0.462-0.34,0.914-0.544,1.354l0.994,2.249l0.032,0.074
			v0.08v0.117v0.073l-0.027,0.068l-0.662,1.653l-0.075,0.187l-0.197,0.043l-1.151,0.253l-0.169,0.363L31.65,33.26l-0.072,0.056
			l-1.297,1.015l-0.052,0.04l-0.061,0.021l-4.675,1.58l-0.067,0.023l-0.071-0.003l-2.05-0.083c-1.059,0.25-2.163,0.385-3.298,0.385
			c-1.3,0-2.56-0.175-3.757-0.502c-0.001,0-0.003,0-0.004,0c-0.333-0.091-0.66-0.194-0.982-0.308
			c-0.006-0.002-0.012-0.004-0.018-0.006c-0.317-0.112-0.63-0.236-0.936-0.37c-0.011-0.004-0.021-0.009-0.032-0.013
			c-0.301-0.133-0.598-0.275-0.888-0.428c-0.015-0.008-0.031-0.017-0.046-0.024c-0.211-0.112-0.42-0.229-0.625-0.352
			c-0.009-0.005-0.018-0.01-0.027-0.015c-0.062-0.037-0.124-0.075-0.185-0.113c-0.021-0.012-0.04-0.025-0.061-0.038
			c-0.19-0.12-0.377-0.243-0.561-0.371c-0.019-0.014-0.039-0.026-0.058-0.04c-0.055-0.038-0.109-0.078-0.163-0.116
			c-0.025-0.018-0.05-0.036-0.074-0.054c-0.054-0.04-0.107-0.079-0.16-0.119c-0.005-0.003-0.01-0.007-0.014-0.011
			c-0.112-0.084-0.223-0.17-0.331-0.258c-0.027-0.021-0.053-0.042-0.078-0.062c-0.048-0.039-0.095-0.078-0.142-0.118
			c-0.029-0.024-0.057-0.048-0.086-0.072c-0.046-0.039-0.092-0.079-0.138-0.119c-0.016-0.014-0.032-0.028-0.048-0.042
			c-0.09-0.079-0.179-0.16-0.268-0.241c-0.03-0.028-0.061-0.057-0.092-0.085c-0.041-0.039-0.082-0.078-0.122-0.117
			c-0.032-0.03-0.064-0.062-0.095-0.092C9.98,32.167,9.94,32.129,9.901,32.09C9.84,32.028,9.78,31.967,9.72,31.904
			c-0.036-0.038-0.071-0.075-0.107-0.113c-0.033-0.036-0.066-0.072-0.099-0.107c-0.036-0.038-0.07-0.076-0.105-0.115
			c-0.034-0.038-0.068-0.077-0.102-0.115c-0.032-0.036-0.064-0.073-0.096-0.11c-0.059-0.067-0.116-0.136-0.173-0.205
			c-0.03-0.036-0.06-0.073-0.09-0.11c-0.034-0.042-0.068-0.084-0.102-0.126c-0.03-0.038-0.06-0.076-0.089-0.114
			c-0.036-0.046-0.072-0.092-0.107-0.139c-0.027-0.036-0.055-0.072-0.083-0.108c-0.052-0.071-0.104-0.143-0.156-0.215
			c-0.025-0.036-0.051-0.072-0.076-0.108c-0.033-0.048-0.066-0.096-0.1-0.144C8.209,30.038,8.184,30,8.159,29.963
			c-0.037-0.055-0.074-0.111-0.109-0.167c-0.024-0.037-0.048-0.074-0.072-0.111c-0.045-0.071-0.09-0.143-0.135-0.215
			c-0.021-0.036-0.043-0.072-0.065-0.109c-0.031-0.052-0.062-0.105-0.093-0.158c-0.022-0.037-0.043-0.074-0.064-0.111
			c-0.037-0.064-0.073-0.129-0.109-0.194C7.491,28.86,7.47,28.823,7.45,28.786c-0.038-0.071-0.076-0.142-0.112-0.213
			c-0.019-0.037-0.038-0.074-0.057-0.11c-0.028-0.056-0.057-0.113-0.085-0.17c-0.018-0.037-0.035-0.074-0.053-0.111
			c-0.037-0.076-0.072-0.152-0.107-0.229c-0.016-0.034-0.031-0.068-0.046-0.103c-0.031-0.071-0.062-0.141-0.093-0.213
			c-0.016-0.038-0.032-0.075-0.047-0.113c-0.025-0.061-0.05-0.121-0.074-0.182c-0.015-0.037-0.03-0.073-0.044-0.11
			c-0.036-0.091-0.071-0.182-0.104-0.273l0,0c-0.563-1.532-0.87-3.187-0.87-4.914c0-6.551,4.422-12.069,10.442-13.734l-0.683-1.637
			l-0.101-0.242l-0.101-0.241l0.189-0.181l0.189-0.181l1.427-1.361C8.656,5.846,2.195,13.19,2.195,22.044
			c0,9.837,7.975,17.811,17.812,17.811c9.836,0,17.811-7.974,17.811-17.811C37.817,14.493,33.118,8.04,26.484,5.448z"/>
		<g>
			<path fill="#ABBD7F" d="M16.348,8.664l-0.046,0.013c-1.447,0.4-2.812,1.031-4.06,1.875c-1.229,0.832-2.312,1.85-3.22,3.025
				c-0.917,1.188-1.63,2.504-2.12,3.916c-0.507,1.459-0.764,2.991-0.764,4.55c0,1.597,0.27,3.161,0.8,4.65l0.734-0.624l0.005-0.006
				l0.114-0.134h0.034l0.044-0.032l0.954-1.176c0.51-0.784,0.931-1.609,1.276-2.315l2.16-4.934l0.001-0.003l0.001-0.002
				c0.348-0.756,0.77-1.646,1.263-2.509l0.037-0.064l0.058-0.046l1.786-1.409l1.98-2.256l-0.04-0.122L16.348,8.664z"/>
			<path fill="#ABBD7F" d="M20.006,35.912c0.446,0,0.892-0.022,1.334-0.065l-1.801,0.025l-0.02,0.031
				C19.682,35.909,19.844,35.912,20.006,35.912z"/>
			<path fill="#ABBD7F" d="M32.011,16.057l-0.055,0.172l-0.6,1.878l-0.012,0.044l0.216-0.214l0.031,0.031l0.884,0.868l0.019,0.019
				l0.017,0.021l0.166,0.216l0.067,0.087l0.011,0.108l0.241,2.465l0.012,0.121l-0.061,0.106l-0.458,0.798l0.922,0.821l0.072,0.064
				l0.033,0.09l0.183,0.503c0.117-0.729,0.177-1.47,0.177-2.211c0-2.573-0.71-5.086-2.054-7.265
				c-0.191-0.311-0.396-0.611-0.61-0.904l-0.06,0.159l-0.165,0.436l0.927,1.436L32.011,16.057z"/>
			<path fill="#ABBD7F" d="M24.553,14.487l0.033-0.006l0.078-0.039l3.257-1.728l0.083-0.044h0.095h0.2h0.063l0.06,0.021l2.496,0.849
				l0.056,0.019c-1.212-1.564-2.747-2.858-4.503-3.785c-0.297,0.559-0.711,1.081-1.232,1.53c-0.252,0.249-0.553,0.458-0.843,0.66
				c-0.517,0.36-1.004,0.699-1.238,1.242l-0.484,1.096l0.045,0.388L24.553,14.487z"/>
		</g>
	</g>
	<g>
		<path fill="#ABBD7F" d="M155.605,444.264c0.698,0.526,1.402,1.044,2.107,1.562C157.007,445.309,156.303,444.791,155.605,444.264z"
			/>
		<path fill="#ABBD7F" d="M148.191,438.367c0.618,0.518,1.238,1.031,1.863,1.54C149.43,439.398,148.809,438.884,148.191,438.367z"/>
		<path fill="#ABBD7F" d="M158.681,446.532c0.709,0.513,1.421,1.021,2.138,1.524C160.102,447.553,159.39,447.044,158.681,446.532z"
			/>
		<path fill="#ABBD7F" d="M145.252,435.861c0.601,0.524,1.209,1.04,1.817,1.557C146.461,436.901,145.853,436.384,145.252,435.861z"
			/>
		<path fill="#ABBD7F" d="M138.301,429.478c0.534,0.515,1.07,1.027,1.61,1.535C139.372,430.505,138.835,429.993,138.301,429.478z"/>
		<path fill="#ABBD7F" d="M118.008,406.417c0.355,0.478,0.718,0.949,1.079,1.424C118.726,407.367,118.364,406.895,118.008,406.417z"
			/>
		<path fill="#ABBD7F" d="M120.49,409.672c0.389,0.5,0.781,0.996,1.175,1.492C121.271,410.668,120.879,410.172,120.49,409.672z"/>
		<path fill="#ABBD7F" d="M141.119,432.137c1.156,1.07,2.324,2.126,3.507,3.167C143.443,434.263,142.274,433.208,141.119,432.137z"
			/>
		<path fill="#ABBD7F" d="M151.08,440.733c1.432,1.151,2.878,2.283,4.344,3.393C153.958,443.017,152.512,441.883,151.08,440.733z"/>
		<path fill="#ABBD7F" d="M205.895,471.286c4.23,1.493,8.528,2.837,12.892,4.028C214.423,474.124,210.125,472.778,205.895,471.286z"
			/>
		<path fill="#ABBD7F" d="M192.96,466.169c-3.958-1.74-7.845-3.613-11.654-5.614C185.116,462.556,189.002,464.429,192.96,466.169z"
			/>
		<path fill="#ABBD7F" d="M193.376,466.351c4.026,1.758,8.126,3.378,12.294,4.855C201.502,469.73,197.402,468.109,193.376,466.351z"
			/>
		<path fill="#ABBD7F" d="M172.505,455.625c2.69,1.604,5.424,3.142,8.2,4.612C177.93,458.768,175.195,457.23,172.505,455.625z"/>
		<path fill="#ABBD7F" d="M169.731,453.939c0.807,0.5,1.617,0.996,2.432,1.484C171.348,454.935,170.539,454.439,169.731,453.939z"/>
		<path fill="#ABBD7F" d="M168.94,453.445c-2.496-1.564-4.951-3.188-7.366-4.864C163.989,450.258,166.444,451.88,168.94,453.445z"/>
		<path fill="#ABBD7F" d="M95.458,366.797c0.207,0.495,0.413,0.99,0.624,1.483C95.87,367.788,95.664,367.292,95.458,366.797z"/>
		<path fill="#ABBD7F" d="M124.181,414.267c-0.398-0.479-0.789-0.964-1.182-1.446C123.392,413.303,123.783,413.788,124.181,414.267z
			"/>
		<path fill="#ABBD7F" d="M93.907,362.967c0.19,0.487,0.386,0.971,0.581,1.455C94.293,363.938,94.097,363.455,93.907,362.967z"/>
		<path fill="#ABBD7F" d="M114.954,402.181c0.333,0.475,0.664,0.95,1.002,1.422C115.618,403.131,115.287,402.656,114.954,402.181z"
			/>
		<path fill="#ABBD7F" d="M127.712,418.389c-0.42-0.478-0.843-0.952-1.258-1.434C126.87,417.437,127.292,417.912,127.712,418.389z"
			/>
		<path fill="#ABBD7F" d="M133.14,424.306c-0.471-0.49-0.934-0.988-1.399-1.484C132.206,423.318,132.669,423.816,133.14,424.306z"/>
		<path fill="#ABBD7F" d="M135.522,426.747c0.506,0.509,1.021,1.011,1.533,1.515C136.543,427.757,136.029,427.255,135.522,426.747z"
			/>
		<path fill="#ABBD7F" d="M130.432,421.417c-0.461-0.503-0.921-1.007-1.377-1.514C129.511,420.41,129.971,420.914,130.432,421.417z"
			/>
		<path fill="#ABBD7F" d="M108.504,392.355c-0.289-0.471-0.572-0.946-0.856-1.421C107.932,391.409,108.215,391.883,108.504,392.355z
			"/>
		<path fill="#ABBD7F" d="M97.302,371.073c0.202,0.452,0.404,0.905,0.609,1.355C97.706,371.978,97.504,371.525,97.302,371.073z"/>
		<path fill="#ABBD7F" d="M112.651,398.828c0.328,0.49,0.66,0.978,0.993,1.465C113.311,399.805,112.979,399.318,112.651,398.828z"/>
		<path fill="#ABBD7F" d="M106.417,388.853c-0.282-0.483-0.563-0.967-0.84-1.453C105.854,387.886,106.136,388.37,106.417,388.853z"
			/>
		<path fill="#ABBD7F" d="M110.269,395.181c0.312,0.49,0.629,0.978,0.946,1.464C110.898,396.159,110.581,395.671,110.269,395.181z"
			/>
		<path fill="#ABBD7F" d="M99.315,375.434c0.231,0.484,0.467,0.965,0.703,1.446C99.783,376.399,99.546,375.917,99.315,375.434z"/>
		<path fill="#ABBD7F" d="M103.345,383.37c0.266,0.494,0.535,0.986,0.805,1.478C103.88,384.356,103.611,383.864,103.345,383.37z"/>
		<path fill="#ABBD7F" d="M101.133,379.125c0.244,0.482,0.487,0.966,0.735,1.446C101.62,380.09,101.377,379.607,101.133,379.125z"/>
	</g>
</g>
<g id="Flash_Bulb">
	<path id="Bulb_-_Yellow" fill="#FFCC4E" d="M18.333,11.803c1.574,0.361,2.658,1.022,3.538,2.029l0.413,0.41l0.525-1.191
		c0.424-0.982,1.511-1.37,2.171-2.028c0.971-0.835,1.642-2.002,1.642-3.292c0-2.197-1.434-4.035-3.35-4.494l-2.687-1.547
		l-4.627,4.415l-0.189,0.18l0.101,0.242l1.836,4.402l0.112,0.343l0.122,0.434L18.333,11.803z"/>
	<path id="Bulb_-_Yellow__x28_Light_x29_" fill="#FFEBB8" d="M18.333,11.803c1.574,0.361,2.658,1.022,3.538,2.029l0.413,0.41
		l0.525-1.191c0.424-0.982,1.511-1.37,2.171-2.028c0.971-0.835,1.642-2.002,1.642-3.292c0-2.197-1.434-4.035-3.35-4.494
		l-2.687-1.547l-4.627,4.415l-0.189,0.18l0.101,0.242l1.836,4.402l0.112,0.343l0.122,0.434L18.333,11.803z"/>
	<path id="Bulb_-_White_1_" display="none" fill="#FFFFFF" d="M310.995,48.039c25.158,6.016,43.967,30.137,43.967,58.977
		c0,16.942-8.803,32.251-21.545,43.219c-8.661,8.635-22.939,13.72-28.495,26.62l-6.898,15.631l-5.42-5.384
		c-11.541-13.207-25.765-21.883-46.422-26.625l-3.494-13.102L218.45,89.29l61.797-58.958L310.995,48.039z"/>
</g>
<g id="Lines_1_">
	<path id="Wrist_Lines" display="none" d="M221.288,500.91l35.595-25.765l-32.539,29.696l-32.1,8.732l-1.528-8.298L221.288,500.91z
		 M187.933,415.415l-3.504-7.676l-29.003,16.293l-24.32,36.73l28.242-33.663L187.933,415.415z M167.239,457.89l29.062-24.459
		l-31.718,21.072l-14.045,25.095l6.64,3.019L167.239,457.89z"/>
	<g id="Hand_Lines" display="none">
		<path display="inline" d="M433.643,291.533l-7.746,13.502l-77.738,28.169l-0.438,0.218h-0.219h-0.436h-1.092l-20.526-2.183
			l-15.723,9.389l-7.643,17.252l10.918,11.136l3.931-3.057l1.311-9.607l-7.206-13.976l10.918,12.446l0.437,1.092l1.311,11.792v0.218
			l-0.874,1.967l-3.93,5.24l1.746,1.965l14.632,0.219l21.617,3.057l69.004-10.918l-68.567,14.193h-2.839l-20.308,11.355
			l-6.987,12.665l20.307,16.377l15.068,5.46l-5.241-6.77l-0.655-1.312l-1.965-20.308l6.552,18.344l10.699,8.079l-3.713,3.931
			l3.494,1.311l27.296-0.655l34.503-8.953l9.389-17.688l-10.48-32.317l13.975,31.662v1.528l-8.69,21.7l-17.514,3.849l-3.275,6.987
			l-17.033,13.321l-61.359,20.744l-48.478-1.965l-30.79,0.438l20.526-2.403l56.775-2.62l56.994-24.894l6.551-5.459l-20.308-0.219
			l13.32,2.84l-23.803,4.803h-17.032l-15.939-9.607l-10.701,16.159l-0.873-35.594h-45.639l36.03-15.505h-36.03l26.641-9.607v-10.918
			l-35.813-12.229l-2.184,1.747l-29.52,6.646l-69.656-6.014l-30.751-32.95l31.881,29.479l67.475,1.092l28.825-3.493l2.838-3.058
			l11.355-41.489l0,0l7.643-17.031h-8.735v-15.286l-17.469-36.468l26.641,19.872l0.873-17.25l-0.655-1.311v-0.873l17.251-24.239
			l-15.723,24.675l2.621,5.023l14.849,22.929l32.974-8.518l66.602-33.409l13.102-19.216l-8.517,26.64l-69.44,30.353l-32.755,6.988
			l1.748,1.747l-11.355,8.734l-1.529,24.895l18.562,10.044l1.092-0.654l-10.044-15.067l-0.656-1.748l-2.184-20.089l8.517-0.873
			l1.31,19.216l10.482,17.032l20.962,3.058l77.303-24.238l7.86-11.792l-1.965-32.1l-1.528-2.402l-11.793-12.229l12.011,11.792
			l2.184,2.838L433.643,291.533z M440.746,319.009l-13.976-12.446l12.446,13.976l4.149,18.779l-20.744,27.95l6.987,4.587
			l18.125-30.571l0.218-2.402l0,0L440.746,319.009z M331.125,202.621l1.529-0.656c0,0,28.824-12.883,43.019-18.997l31.007,13.102
			l3.057-8.08l-32.755-11.137h-2.619l-42.801,22.711l-1.746,0.873l-1.31,0.219l-29.235,3.225l29.453-0.824L331.125,202.621z
			 M333.309,214.631l10.264-8.299l-5.896-6.113l-7.643,9.171l-24.238,17.25L333.309,214.631z M187.441,204.368L187.441,204.368
			c-6.114,10.7-11.355,21.618-16.377,32.536l-28.388,64.855c-5.24,10.699-10.7,21.182-17.25,31.226
			c7.424-9.171,14.194-18.562,20.526-28.388l34.938-60.05c5.678-9.827,12.01-18.998,18.562-28.169l19.434-24.457l0,0l20.526-38.433
			l-28.169,32.099l0,0L187.441,204.368z M112.324,349.145l-55.059,46.767c1.828,3.809,3.755,7.56,5.78,11.25L112.324,349.145z
			 M198.797,389.324l-8.08,2.839l23.583,63.106v0.22l0.437,0.655l0.438,0.437l25.112,15.722l-23.365-17.905L198.797,389.324z
			 M326.323,267.475l-7.425-6.769l-1.092-1.311l-8.08-18.125l6.551,18.999l8.08,9.172L326.323,267.475z M341.17,351.983
			l-1.527-8.734l0.873,8.734c0.219,3.058,0.654,5.896,1.528,8.734l7.642,15.941l2.402-1.31l-8.734-15.286
			C342.481,357.661,341.827,354.822,341.17,351.983z M304.335,101.938l-12.699,8.679l5.769-13.2l-4.322-3.334l-10.315,6.935
			l3.685-7.638l-6.127-4.689l-7.797,19.823l4.951,3.923l10.837-8.242l-5.207,10.324l5.533,4.268l11.751-6.655l-10.478,31.517
			l19.427-38.154L304.335,101.938z M299.271,203.881l15.292,16.52l-8.768,6.24l-5.624,7.736
			c-14.548-14.439-30.06-21.75-33.991-24.511c13.529,3.105,24.292,7.907,33.356,14.555c-16-18.803-35.54-27.87-40.022-31.018
			c13.527,3.104,24.289,7.905,33.353,14.552c-15.999-18.8-35.537-27.867-40.02-31.015c13.528,3.104,24.29,7.905,33.354,14.553
			c-15.999-18.801-35.538-27.869-40.02-31.017c20.657,4.741,34.881,13.418,46.422,26.625l7.318-15.247
			c5.556-12.9,14.211-17.688,23.495-24.62c12.742-10.967,21.545-23.276,21.545-40.219c0-33.368-25.179-55.419-56.238-55.419
			c-11.798,0-22.743,3.64-31.787,9.848c0,0,14-14.848,41.787-14.848c31.06,0,56.238,27.051,56.238,60.419
			c0,16.942-8.803,32.251-21.545,43.219c-8.661,8.635-22.939,13.72-28.495,26.62l-6.898,15.631L299.271,203.881z M333.091,47.145
			l24.457-21.836l2.401,2.839L333.091,47.145z M246.182,9.149l3.275-1.529l13.32,31.445L246.182,9.149z M201.635,46.052
			l20.963,15.068L199.67,49.11L201.635,46.052z"/>
	</g>
	<g>
		<path d="M32.616,21.789l-0.59,1.028l-5.923,2.146l-0.034,0.016h-0.017h-0.034h-0.083l-1.563-0.166l-1.198,0.715l-0.583,1.314
			l0.833,0.849l0.299-0.233l0.1-0.732l-0.549-1.065l0.832,0.949l0.033,0.083l0.1,0.898v0.017l-0.066,0.149l-0.299,0.399l0.133,0.15
			l1.115,0.016l1.647,0.233l5.257-0.832l-5.225,1.082h-0.216l-1.547,0.865l-0.533,0.965l1.548,1.248l1.148,0.416l-0.399-0.516
			l-0.05-0.1l-0.149-1.547l0.499,1.398l0.815,0.615l-0.283,0.3l0.267,0.1l2.08-0.05l2.628-0.682l0.715-1.348l-0.798-2.462
			l1.064,2.412v0.117l-0.662,1.653l-1.334,0.293l-0.25,0.532l-1.298,1.015l-4.675,1.58l-3.694-0.149l-2.345,0.033l1.563-0.183
			l4.326-0.2l4.342-1.896l0.499-0.417l-1.547-0.017L29.53,33l-1.813,0.366h-1.297l-1.215-0.732l-0.815,1.231l-0.066-2.712h-3.477
			l2.745-1.181h-2.745l2.03-0.732v-0.833l-2.729-0.931l-0.167,0.133l-2.249,0.506l-5.307-0.458l-2.343-2.511l2.429,2.247
			l5.141,0.083l2.196-0.267l0.216-0.232l0.865-3.162l0,0l0.583-1.297h-0.666v-1.166l-1.331-2.778l2.03,1.514l0.066-1.315l-0.05-0.1
			v-0.066l1.314-1.847l-1.198,1.88l0.2,0.382l1.131,1.747l2.512-0.648l5.075-2.545l0.998-1.464l-0.648,2.029l-5.291,2.313
			l-2.496,0.532l0.133,0.133l-0.866,0.666l-0.116,1.896l1.414,0.766l0.084-0.049l-0.766-1.148l-0.05-0.133l-0.166-1.53l0.648-0.067
			l0.1,1.464l0.799,1.297l1.597,0.233l5.89-1.847l0.599-0.899l-0.149-2.445l-0.117-0.183l-0.898-0.932l0.915,0.899l0.166,0.216
			L32.616,21.789z M33.157,23.882l-1.065-0.949l0.948,1.065l0.316,1.431l-1.58,2.129l0.532,0.349l1.381-2.329l0.016-0.183l0,0
			L33.157,23.882z M24.805,15.014l0.116-0.05c0,0,2.196-0.981,3.277-1.447l2.363,0.999l0.233-0.616l-2.496-0.849h-0.2l-3.261,1.73
			l-0.133,0.067l-0.1,0.017l-2.227,0.245l2.244-0.062L24.805,15.014z M24.972,15.929l0.782-0.632l-0.449-0.466l-0.583,0.699
			l-1.846,1.314L24.972,15.929z M13.858,15.147L13.858,15.147c-0.467,0.815-0.866,1.647-1.249,2.479l-2.163,4.941
			c-0.399,0.815-0.815,1.614-1.314,2.379c0.565-0.699,1.081-1.414,1.563-2.163l2.662-4.576c0.433-0.749,0.915-1.447,1.415-2.146
			l1.48-1.863l0,0l1.564-2.928l-2.146,2.445l0,0L13.858,15.147z M8.134,26.178l-4.195,3.563c0.14,0.291,0.287,0.576,0.441,0.857
			L8.134,26.178z M14.723,29.239l-0.615,0.216l1.797,4.808v0.017l0.033,0.05l0.033,0.033l1.913,1.198l-1.78-1.364L14.723,29.239z
			 M24.439,19.956l-0.565-0.516l-0.083-0.1l-0.615-1.381l0.499,1.448l0.615,0.699L24.439,19.956z M25.57,26.394l-0.117-0.666
			l0.066,0.666c0.017,0.233,0.05,0.45,0.116,0.666l0.583,1.215l0.183-0.1l-0.666-1.165C25.67,26.827,25.62,26.611,25.57,26.394z
			 M22.378,15.11l1.165,1.259l-0.668,0.476l-0.429,0.589c-1.108-1.101-2.29-1.657-2.589-1.867c1.031,0.236,1.851,0.602,2.542,1.109
			c-1.219-1.433-2.708-2.124-3.049-2.363c1.031,0.236,1.851,0.602,2.541,1.108c-1.218-1.432-2.707-2.123-3.048-2.362
			c1.031,0.236,1.851,0.602,2.541,1.109c-1.219-1.433-2.707-2.124-3.049-2.363c1.574,0.361,2.658,1.022,3.538,2.029l0.557-1.162
			c0.424-0.983,1.083-1.348,1.791-1.875c0.971-0.836,1.641-1.774,1.641-3.064c0-2.542-1.918-4.223-4.285-4.223
			c-0.899,0-1.733,0.277-2.422,0.75c0,0,1.067-1.131,3.184-1.131c2.366,0,4.285,2.061,4.285,4.604c0,1.291-0.67,2.457-1.642,3.292
			c-0.66,0.658-1.748,1.046-2.171,2.028l-0.525,1.191L22.378,15.11z M24.955,3.168l1.863-1.664l0.183,0.216L24.955,3.168z
			 M18.333,0.273l0.25-0.116l1.014,2.396L18.333,0.273z M14.938,3.085l1.598,1.147l-1.748-0.915L14.938,3.085z M19.545,6.104
			l-0.986,3.11l1.117-2.271l0.282,0.99l0.528,0.063l0.27-0.839l0.147,1.027l0.478,0.052l0.637-1.492l-0.583-0.074l-0.208,0.612
			l-0.189-0.929l-0.413-0.049L20.233,7.33l-0.225-1.15L19.545,6.104z"/>
	</g>
	<g display="none">
		<polygon display="inline" points="282.907,89.36 272.19,100.394 275.215,86.31 270.315,83.903 261.588,92.753 263.679,84.535 
			256.74,81.16 253.046,102.139 258.68,104.997 267.659,94.762 264.612,105.916 270.884,108.997 281.075,100.135 277.083,133.107 
			288.522,91.848 		"/>
	</g>
	<g display="none">
		<polygon display="inline" points="269.631,86.062 257.71,127.185 271.621,97.025 275.643,109.917 282.598,110.586 285.86,99.493 
			288.129,112.918 294.425,113.442 302.292,93.647 294.615,92.878 292.081,100.971 289.298,88.856 283.865,88.333 279.046,101.909 
			275.717,86.891 		"/>
	</g>
	<g id="White_Flash_Lines" display="none">
		<path display="inline" fill="#FFFFFF" d="M363.828,108.836l0.095-0.231l36.146,12.925l-1.175,3.525L363.828,108.836z
			 M185.759,107.206l28.302-5.047l0.059,0.242l-27.422,8.556L185.759,107.206z"/>
		<path display="inline" d="M214.083,102.282l-27.296,8.517l-0.874-3.493L214.083,102.282 M363.88,108.723l36.03,12.884
			l-1.092,3.276L363.88,108.723 M214.039,102.036l-28.17,5.023l-0.264,0.047l0.065,0.26l0.874,3.493l0.064,0.257l0.253-0.079
			l27.295-8.517L214.039,102.036L214.039,102.036z M363.964,108.487l-0.188,0.462l34.938,16.16l0.253,0.117l0.089-0.265l1.092-3.276
			l0.077-0.232l-0.23-0.083L363.964,108.487L363.964,108.487z"/>
	</g>
</g>
</svg>
