<?xml version="1.0" encoding="utf-8"?>
<!-- Generator: Adobe Illustrator 16.0.4, SVG Export Plug-In . SVG Version: 6.00 Build 0)  -->
<!DOCTYPE svg PUBLIC "-//W3C//DTD SVG 1.1//EN" "http://www.w3.org/Graphics/SVG/1.1/DTD/svg11.dtd">
<svg version="1.1" xmlns="http://www.w3.org/2000/svg" xmlns:xlink="http://www.w3.org/1999/xlink" x="0px" y="0px"
	 width="16.005px" height="16.005px" viewBox="0 0 16.005 16.005" enable-background="new 0 0 16.005 16.005" xml:space="preserve">
<g id="Bounding_Box">
	<rect x="0.002" y="0.002" fill="#FFFFFF" stroke="#FFFFFF" stroke-width="0.0051" width="16" height="16"/>
</g>
<g id="Utilities" display="none">
	<g id="Outer_Circle" display="inline">
		<circle fill="#8B5500" cx="256.139" cy="282.889" r="233.772"/>
	</g>
	<circle id="Inner_Circle_1_" display="inline" fill="#0063E7" cx="256.139" cy="282.889" r="187.018"/>
	<path id="Clipped_Hand_Outline" display="inline" fill="#00FFFF" d="M440.648,325.174l-7.206-19.872l-0.431-1.189l-0.944-0.841
		l-12.102-10.777l6.011-10.477l0.795-1.385l-0.155-1.59l-3.161-32.355l-0.14-1.426l-0.874-1.136l-2.184-2.838l-0.212-0.275
		l-0.248-0.244l-11.599-11.388l-0.414-0.406l-2.835,2.81l0.148-0.583l7.88-24.647l0.72-2.25l-1.282-1.985l-12.17-18.843l2.164-5.719
		l1.83-4.838l-4.897-1.665l-32.755-11.137l-0.782-0.266h-0.827h-2.619h-1.244l-1.1,0.583l-42.746,22.682l-1.021,0.511l-0.432,0.072
		l-24.083,2.656l-0.59-5.098l6.349-14.388c3.067-7.122,9.472-11.579,16.251-16.297c3.813-2.654,7.756-5.398,11.068-8.669
		c14.713-12.724,23.146-29.804,23.146-46.891c0-1.004-0.024-2.031-0.073-3.139c-0.011-0.239-0.026-0.467-0.041-0.695l-0.021-0.319
		c-0.041-0.697-0.087-1.396-0.148-2.09c-0.032-0.362-0.069-0.706-0.106-1.05l-0.015-0.138c-0.066-0.628-0.141-1.264-0.225-1.896
		c-0.054-0.406-0.112-0.809-0.173-1.211c-0.095-0.62-0.198-1.239-0.309-1.855l-0.027-0.149c-0.061-0.338-0.122-0.677-0.188-1.013
		c-0.13-0.654-0.27-1.29-0.413-1.923l-0.076-0.341c-0.053-0.235-0.105-0.47-0.162-0.704c-0.172-0.707-0.371-1.458-0.608-2.304
		l-0.041-0.154c-0.04-0.152-0.08-0.304-0.124-0.454c-0.269-0.924-0.569-1.879-0.892-2.832c-0.062-0.181-0.123-0.349-0.185-0.518
		l-0.088-0.243c-0.241-0.683-0.484-1.355-0.741-2.02c-0.103-0.263-0.203-0.508-0.304-0.752l-0.107-0.264
		c-0.236-0.579-0.475-1.153-0.725-1.721c-0.15-0.342-0.306-0.681-0.462-1.02c-0.271-0.589-0.528-1.13-0.795-1.668
		c-0.168-0.341-0.34-0.685-0.515-1.025c-0.283-0.551-0.573-1.088-0.867-1.623l-0.121-0.22c-0.136-0.248-0.271-0.495-0.411-0.739
		c-0.337-0.589-0.689-1.174-1.048-1.755l-0.131-0.218c-0.102-0.17-0.204-0.34-0.31-0.507c-0.532-0.84-1.066-1.647-1.59-2.401
		c-0.071-0.104-0.154-0.217-0.238-0.33l-0.062-0.085c-0.475-0.673-0.934-1.301-1.392-1.903c-0.14-0.182-0.278-0.357-0.417-0.531
		l-0.198-0.25c-0.396-0.503-0.784-0.99-1.184-1.467c-0.198-0.239-0.409-0.484-0.621-0.729l-0.1-0.116
		c-0.389-0.449-0.776-0.887-1.17-1.317c-0.261-0.285-0.518-0.562-0.777-0.836c-0.409-0.431-0.819-0.849-1.233-1.263l-0.119-0.119
		c-0.222-0.222-0.443-0.443-0.669-0.661c-0.451-0.435-0.914-0.862-1.382-1.286l-0.191-0.176c-0.172-0.158-0.343-0.316-0.519-0.47
		c-0.62-0.546-1.28-1.104-1.957-1.652c-0.064-0.057-0.144-0.123-0.225-0.188c-0.685-0.549-1.44-1.127-2.229-1.703
		c-0.165-0.121-0.34-0.243-0.516-0.364l-0.216-0.15c-0.527-0.374-1.06-0.745-1.601-1.102c-0.237-0.157-0.48-0.312-0.724-0.466
		l-0.181-0.114c-0.499-0.317-1.001-0.629-1.509-0.931c-0.322-0.192-0.646-0.38-0.973-0.566c-0.508-0.29-1.018-0.569-1.531-0.843
		c-0.328-0.174-0.657-0.349-0.989-0.518c-0.542-0.275-1.09-0.538-1.64-0.796l-0.26-0.123c-0.221-0.105-0.441-0.209-0.664-0.31
		c-0.602-0.27-1.238-0.54-2.01-0.852l-0.172-0.072c-0.147-0.062-0.295-0.124-0.444-0.183c-0.883-0.346-1.786-0.674-2.687-0.977
		c-0.158-0.053-0.317-0.102-0.476-0.15l-0.18-0.055c-0.789-0.255-1.452-0.458-2.087-0.637c-0.247-0.069-0.494-0.134-0.742-0.198
		l-0.25-0.065l-0.348-0.093c-0.046-0.012-0.092-0.025-0.138-0.037l-34.679-19.971l-3.241-1.866l-2.706,2.582l-60.731,57.942
		l-2.486,2.373l-2.486,2.372l1.323,3.171l1.323,3.171l24.031,57.589l0.522,1.602l-25.988,29.614l-23.442,18.496l-0.762,0.602
		l-0.482,0.843c-6.476,11.333-12.015,23.005-16.579,32.927l-0.02,0.042l-0.019,0.042l-28.345,64.758
		c-4.538,9.262-10.07,20.091-16.761,30.382l-12.511,15.432l-0.59,0.421h-0.444l-1.497,1.757l-0.074,0.087l-13.716,11.65
		c25.004,68.06,88.45,117.541,164.021,122.157l3.248-2.352l0.757-0.548l0.508-0.785l0.949-1.466l27.979-0.398l48.342,1.96
		l0.926,0.037l0.878-0.297l61.359-20.744l0.808-0.272l0.671-0.525l17.033-13.321l0.94-0.735l0.507-1.081l2.229-4.755l15.106-3.319
		l2.585-0.568l0.983-2.457l8.69-21.7l0.358-0.895v-0.964v-1.528v-1.055l-0.426-0.964l-13.975-31.662l-0.504-1.143l15.516-26.171
		l0.577-0.973l0.102-1.126l0.218-2.402l0.101-1.108L440.648,325.174z"/>
	<g display="inline">
		<path fill="#005B5C" d="M256.139,516.66c-129.109,0-233.772-104.663-233.772-233.771h46.754
			c0,103.287,83.73,187.018,187.018,187.018V516.66z"/>
		<g id="Hand__x2B__Lines">
			<path fill="#5C002B" d="M435.73,329.28l-17.992,30.348l2.707,1.534l13.975,31.662v1.528l-8.69,21.7l-17.514,3.849l-3.275,6.987
				l-17.033,13.321l-61.359,20.744l-48.478-1.965l-30.79,0.438l-2.402,3.711l-35.593,25.768l-30.571,4.367L65.816,377.764
				l-5.449,17.395c-2.024-3.69-13.278-19.826-15.105-23.635l52.54-32.242l0.335-0.394h0.128l0.209-0.178l0.317-0.477l1.529-1.092
				l13.102-16.16c6.551-10.044,12.01-20.526,17.25-31.226l28.388-64.855c5.022-10.918,10.264-21.836,16.377-32.536l23.802-18.78
				l28.169-32.099l-1.469-4.5l-24.108-57.773l-1.323-3.171l2.486-2.372l60.731-57.942l35.265,20.309
				c0.379,0.091,0.751,0.198,1.127,0.297c0.302,0.079,0.604,0.154,0.903,0.238c0.64,0.18,1.273,0.377,1.904,0.581
				c0.199,0.064,0.401,0.121,0.601,0.188c0.826,0.278,1.645,0.575,2.454,0.892c0.19,0.075,0.376,0.158,0.565,0.235
				c0.616,0.25,1.229,0.505,1.834,0.777c0.285,0.128,0.566,0.266,0.851,0.399c0.503,0.236,1.005,0.477,1.501,0.729
				c0.304,0.154,0.604,0.314,0.905,0.474c0.472,0.251,0.939,0.508,1.403,0.772c0.299,0.17,0.596,0.342,0.892,0.519
				c0.466,0.277,0.927,0.564,1.385,0.855c0.277,0.176,0.556,0.35,0.83,0.532c0.496,0.328,0.983,0.668,1.469,1.012
				c0.224,0.158,0.451,0.311,0.672,0.472c0.699,0.51,1.389,1.035,2.064,1.577c0.064,0.051,0.125,0.106,0.188,0.158
				c0.611,0.496,1.214,1.003,1.806,1.525c0.221,0.194,0.435,0.396,0.651,0.593c0.43,0.39,0.855,0.782,1.273,1.185
				c0.244,0.235,0.482,0.476,0.722,0.715c0.383,0.382,0.762,0.769,1.135,1.162c0.241,0.255,0.479,0.512,0.717,0.771
				c0.364,0.399,0.723,0.804,1.077,1.213c0.225,0.26,0.45,0.52,0.67,0.784c0.368,0.44,0.727,0.89,1.083,1.342
				c0.19,0.243,0.386,0.482,0.573,0.728c0.442,0.581,0.873,1.173,1.295,1.771c0.089,0.125,0.183,0.246,0.27,0.372
				c0.505,0.727,0.993,1.467,1.469,2.218c0.141,0.223,0.272,0.452,0.41,0.676c0.33,0.536,0.655,1.075,0.969,1.623
				c0.167,0.291,0.326,0.587,0.488,0.881c0.272,0.495,0.541,0.993,0.801,1.497c0.163,0.317,0.322,0.637,0.48,0.958
				c0.246,0.498,0.484,0.999,0.718,1.504c0.149,0.326,0.299,0.651,0.443,0.979c0.231,0.526,0.452,1.058,0.67,1.593
				c0.127,0.312,0.257,0.622,0.38,0.937c0.239,0.618,0.465,1.244,0.687,1.872c0.083,0.236,0.173,0.469,0.254,0.707
				c0.294,0.869,0.571,1.747,0.829,2.633c0.054,0.184,0.099,0.372,0.15,0.557c0.198,0.705,0.389,1.414,0.563,2.13
				c0.078,0.322,0.146,0.647,0.221,0.971c0.134,0.589,0.264,1.18,0.382,1.776c0.07,0.36,0.135,0.722,0.2,1.083
				c0.103,0.573,0.199,1.149,0.287,1.728c0.057,0.372,0.11,0.743,0.16,1.117c0.078,0.588,0.146,1.179,0.209,1.772
				c0.039,0.363,0.079,0.726,0.112,1.091c0.057,0.646,0.1,1.296,0.138,1.948c0.019,0.314,0.043,0.626,0.058,0.942
				c0.043,0.967,0.068,1.938,0.068,2.917c0,16.942-8.803,32.251-21.545,43.219c-8.661,8.635-22.939,13.72-28.495,26.62
				l-6.898,15.631l1.318,11.389l29.165-3.217l1.31-0.219l1.746-0.873l42.801-22.711h2.619l32.755,11.137l-3.057,8.08l13.539,20.963
				l-8.517,26.64l4.959,1.262l-0.374-0.388l0.402,0.396h0.001l0.009,0.009l11.599,11.388l2.184,2.838l3.161,32.355l-7.746,13.502
				l-0.412,0.149l13.731,15.354l-12.446-13.976l13.976,12.446l7.206,19.872L435.73,329.28z"/>
		</g>
	</g>
	<path id="Bulb_Background__x28_stretched_x29_" display="inline" fill="#00D013" d="M234.178,148.473
		c20.657,4.741,34.881,13.418,46.422,26.625l5.42,5.384l6.898-15.631c5.556-12.9,19.834-17.985,28.495-26.62
		c12.742-10.967,21.545-26.276,21.545-43.219c0-28.84-18.809-52.96-43.967-58.977l-35.265-20.309l-60.731,57.942l-2.486,2.372
		l1.323,3.171l24.108,57.773l1.469,4.5l1.608,5.693L234.178,148.473z"/>
	<path id="Bulb_Background__x28_normal_x29_" display="inline" fill="#FFCC4E" d="M298.991,36.035
		c25.158,6.016,43.967,30.137,43.967,58.977c0,16.942-8.803,32.251-21.545,43.219c-8.661,8.635-22.939,13.72-28.495,26.62
		l-6.898,15.631l-5.42-5.384c-11.541-13.207-25.765-21.883-46.422-26.625l-3.494-13.102l-24.238-58.084l61.797-58.958
		L298.991,36.035z"/>
	<path id="Hand_Background__x28_no_bulb_x2C__no_lines_x29_" display="inline" fill="#1E00E7" d="M229.017,147.179l-1.608-5.693
		l-20.526,38.433l-0.436,0.873h-0.219l-18.779,23.583c-6.551,9.171-12.884,18.342-18.562,28.169l-34.938,60.05
		c-6.332,9.826-13.102,19.217-20.526,28.388l-13.102,16.16l-1.529,1.092l-0.436,0.654h-0.219L65.383,377.32l113.331,115.952
		l30.571-4.367l35.593-25.768l2.402-3.711l75.812-4.955l58.483-24.962l6.551-5.459l33.411-12.884l9.389-17.688l-10.48-32.317
		l-6.552-3.713l17.469-30.135l-4.149-18.779l-14.53-16.248l6.888-13.013l-1.965-32.1l-1.528-2.402l-11.39-11.833l-4.988-1.269
		l8.517-26.64l-13.539-20.963l-31.007-13.102l-45.498,18.78l-30.823,2.221l-1.329-11.484l-5.42-5.384
		c-11.541-13.207-25.765-21.883-46.422-26.625L229.017,147.179z"/>
	<path display="inline" fill="#C64948" d="M654.56,448.362H379.404l-24.657,8.336h295.645v119.717h-788.506V456.698h325.101
		c-6.185-2.463-12.204-5.252-18.043-8.336h-311.226c-2.302,0-4.168,1.866-4.168,4.168v128.053c0,2.302,1.866,4.168,4.168,4.168
		H654.56c2.302,0,4.168-1.866,4.168-4.168V452.53C658.728,450.229,656.861,448.362,654.56,448.362z"/>
	<rect id="Box_2_" x="-138.114" y="456.698" display="inline" fill="#9AFF00" width="788.506" height="119.717"/>
</g>
<g id="Circle_-_Bottom">
	<g id="Large_Patches" display="none">
		<path display="inline" fill="#ABBD7F" d="M94.257,335.731l0.074-0.087l1.497-1.757h0.444l0.59-0.421l12.511-15.432
			c6.69-10.291,12.223-21.12,16.761-30.382l28.345-64.758l0.019-0.042l0.02-0.042c4.564-9.922,10.103-21.594,16.579-32.927
			l0.482-0.843l0.762-0.602l23.442-18.496l25.988-29.614l-0.522-1.602l-15.063-36.098c-79.032,21.854-137.064,94.274-137.064,180.26
			c0,22.666,4.034,44.389,11.42,64.493L94.257,335.731z"/>
		<path display="inline" fill="#ABBD7F" d="M425.02,359.144l0.946,2.146c2.67-5.773,5.059-11.701,7.138-17.774l-8.588,14.486
			L425.02,359.144z"/>
		<path display="inline" fill="#ABBD7F" d="M324.812,141.902c-3.312,3.271-7.255,6.015-11.068,8.669
			c-6.779,4.719-13.184,9.175-16.251,16.297l-6.349,14.388l0.59,5.098l24.083-2.656l0.432-0.072l1.021-0.511l42.746-22.682
			l1.1-0.583h1.244h2.619h0.827l0.782,0.266l32.755,11.137l4.897,1.665l-1.83,4.838l-2.164,5.719l12.17,18.843l1.282,1.985
			l-0.72,2.25l-7.88,24.647l-0.148,0.583l2.835-2.81l0.414,0.406l11.599,11.388l0.248,0.244l0.212,0.275l2.184,2.838l0.874,1.136
			l0.14,1.426l3.161,32.355l0.155,1.59l-0.795,1.385l-6.011,10.477l12.102,10.777l0.944,0.841l0.431,1.189l5.774,15.924
			c2.578-12.375,3.94-25.196,3.94-38.337c0-71.859-40.536-134.241-99.981-165.558C339.249,126.372,333.008,134.814,324.812,141.902z
			"/>
		<path display="inline" fill="#ABBD7F" d="M278.004,463.99l-27.979,0.398l-0.949,1.466l-0.508,0.785l-0.757,0.548l-3.248,2.352
			c-12.977-0.793-25.597-2.908-37.726-6.214c15.709,4.282,32.236,6.581,49.302,6.581c14.904,0,29.397-1.753,43.294-5.047
			L278.004,463.99z"/>
	</g>
	<g>
		<path d="M10.594,2.18c0.006,0.011,0.011,0.022,0.017,0.035c0.005,0.01,0.01,0.021,0.014,0.031
			c0.007,0.017,0.015,0.035,0.022,0.052l0.003,0.008c0.003,0.008,0.006,0.015,0.009,0.023c0.008,0.02,0.015,0.041,0.022,0.061
			l0.003,0.008c0.001,0.005,0.003,0.01,0.005,0.016c0.01,0.029,0.019,0.058,0.027,0.086c0.001,0.005,0.002,0.009,0.003,0.014
			l0.001,0.005c0.007,0.025,0.014,0.049,0.019,0.07c0.001,0.007,0.003,0.014,0.005,0.021l0.002,0.01
			c0.004,0.019,0.008,0.039,0.013,0.058c0.002,0.011,0.004,0.021,0.005,0.031l0.001,0.004c0.003,0.019,0.007,0.038,0.01,0.057
			c0.001,0.012,0.003,0.024,0.005,0.037c0.002,0.02,0.005,0.039,0.007,0.058l0,0.004c0.001,0.011,0.002,0.021,0.003,0.032
			c0.002,0.021,0.003,0.042,0.004,0.063l0.001,0.01c0,0.007,0,0.014,0.001,0.021c0.001,0.034,0.002,0.065,0.002,0.096
			c0,0.23-0.05,0.461-0.146,0.68c1.812,0.954,3.047,2.855,3.047,5.045c0,0.4-0.042,0.792-0.12,1.168l0.044,0.12l0.011,0.032
			l-0.003,0.034l-0.006,0.073l-0.003,0.034l-0.018,0.03l-0.211,0.356c-0.063,0.185-0.136,0.366-0.218,0.542l0.397,0.9l0.013,0.029
			v0.032v0.046v0.029l-0.011,0.027l-0.265,0.662l-0.03,0.075l-0.079,0.017l-0.46,0.102l-0.067,0.145l-0.016,0.033l-0.029,0.022
			l-0.519,0.406l-0.021,0.016l-0.024,0.008l-1.87,0.632l-0.027,0.009l-0.028-0.001l-0.82-0.033c-0.424,0.1-0.865,0.154-1.319,0.154
			c-0.521,0-1.024-0.07-1.503-0.201c0,0-0.001,0-0.001,0c-0.133-0.036-0.264-0.077-0.393-0.123
			c-0.002-0.001-0.005-0.002-0.007-0.002c-0.127-0.045-0.252-0.095-0.375-0.148c-0.004-0.002-0.008-0.004-0.013-0.005
			c-0.121-0.053-0.239-0.11-0.355-0.171c-0.006-0.003-0.012-0.006-0.019-0.01c-0.084-0.045-0.168-0.092-0.25-0.141
			c-0.003-0.002-0.007-0.004-0.01-0.006c-0.025-0.015-0.05-0.03-0.074-0.045c-0.008-0.005-0.016-0.01-0.024-0.015
			c-0.076-0.048-0.151-0.097-0.225-0.148c-0.007-0.005-0.016-0.011-0.023-0.016c-0.022-0.015-0.043-0.031-0.065-0.046
			c-0.01-0.007-0.02-0.015-0.03-0.021c-0.021-0.016-0.043-0.032-0.064-0.048c-0.002-0.001-0.004-0.003-0.006-0.004
			c-0.044-0.034-0.089-0.068-0.132-0.103c-0.011-0.009-0.021-0.017-0.031-0.025c-0.019-0.015-0.038-0.031-0.057-0.047
			c-0.012-0.009-0.023-0.019-0.034-0.029c-0.019-0.016-0.037-0.032-0.056-0.047c-0.006-0.006-0.013-0.011-0.019-0.017
			C4.202,13.065,4.167,13.033,4.131,13c-0.012-0.011-0.024-0.022-0.037-0.034c-0.017-0.016-0.033-0.031-0.049-0.047
			c-0.013-0.012-0.026-0.024-0.038-0.037c-0.016-0.016-0.031-0.031-0.047-0.046c-0.024-0.025-0.049-0.049-0.073-0.075
			c-0.014-0.015-0.028-0.03-0.042-0.045c-0.014-0.014-0.027-0.029-0.04-0.043c-0.014-0.015-0.028-0.03-0.042-0.046
			c-0.014-0.015-0.027-0.031-0.041-0.046c-0.013-0.014-0.026-0.029-0.039-0.044c-0.023-0.027-0.046-0.054-0.069-0.082
			c-0.012-0.015-0.024-0.029-0.036-0.044c-0.013-0.017-0.027-0.034-0.041-0.05c-0.012-0.016-0.024-0.031-0.036-0.046
			c-0.015-0.019-0.029-0.037-0.043-0.056c-0.011-0.015-0.022-0.029-0.033-0.043c-0.021-0.028-0.042-0.057-0.063-0.086
			c-0.01-0.014-0.02-0.029-0.03-0.043c-0.013-0.019-0.026-0.039-0.04-0.058c-0.01-0.015-0.02-0.03-0.03-0.045
			c-0.015-0.022-0.029-0.044-0.043-0.066c-0.01-0.015-0.02-0.03-0.029-0.045c-0.019-0.028-0.036-0.057-0.054-0.086
			c-0.008-0.014-0.017-0.029-0.026-0.043c-0.013-0.021-0.025-0.042-0.037-0.063c-0.009-0.015-0.018-0.03-0.026-0.044
			c-0.015-0.026-0.029-0.052-0.043-0.078c-0.008-0.015-0.017-0.03-0.024-0.045c-0.016-0.028-0.03-0.057-0.045-0.085
			C2.928,11.415,2.92,11.4,2.913,11.385c-0.011-0.023-0.022-0.045-0.034-0.068c-0.007-0.015-0.014-0.029-0.021-0.044
			c-0.015-0.03-0.029-0.061-0.043-0.092c-0.006-0.014-0.012-0.027-0.019-0.041c-0.012-0.028-0.025-0.057-0.037-0.085
			c-0.006-0.015-0.013-0.03-0.019-0.045c-0.01-0.024-0.02-0.048-0.029-0.072c-0.006-0.015-0.012-0.029-0.018-0.044
			c-0.015-0.036-0.028-0.073-0.042-0.109l0,0c-0.226-0.613-0.348-1.275-0.348-1.966c0-2.621,1.769-4.828,4.177-5.494L6.207,2.669
			L6.167,2.573l-0.04-0.097l0.076-0.072l0.076-0.072l0.571-0.544C3.463,2.339,0.878,5.276,0.878,8.818
			c0,3.935,3.19,7.125,7.125,7.125c3.935,0,7.125-3.19,7.125-7.125C15.127,5.797,13.248,3.216,10.594,2.18z"/>
	</g>
	<g>
		<path display="none" d="M10.594,2.18c0.006,0.011,0.011,0.022,0.017,0.035c0.005,0.01,0.01,0.021,0.014,0.031
			c0.007,0.017,0.015,0.035,0.022,0.052l0.003,0.008c0.003,0.008,0.006,0.015,0.009,0.023c0.008,0.02,0.015,0.041,0.022,0.061
			l0.003,0.008c0.001,0.005,0.003,0.01,0.005,0.016c0.01,0.029,0.019,0.058,0.027,0.086c0.001,0.005,0.002,0.009,0.003,0.014
			l0.001,0.005c0.007,0.025,0.014,0.049,0.019,0.07c0.001,0.007,0.003,0.014,0.005,0.021l0.002,0.01
			c0.004,0.019,0.008,0.039,0.013,0.058c0.002,0.011,0.004,0.021,0.005,0.031l0.001,0.004c0.003,0.019,0.007,0.038,0.01,0.057
			c0.001,0.012,0.003,0.024,0.005,0.037c0.002,0.02,0.005,0.039,0.007,0.058l0,0.004c0.001,0.011,0.002,0.021,0.003,0.032
			c0.002,0.021,0.003,0.042,0.004,0.063l0.001,0.01c0,0.007,0,0.014,0.001,0.021c0.001,0.034,0.002,0.065,0.002,0.096
			c0,0.23-0.05,0.461-0.146,0.68c1.812,0.954,3.047,2.855,3.047,5.045c0,0.4-0.042,0.792-0.12,1.168l0.044,0.12l0.011,0.032
			l-0.003,0.034l-0.006,0.073l-0.003,0.034l-0.018,0.03l-0.211,0.356c-0.063,0.185-0.136,0.366-0.218,0.542l0.397,0.9l0.013,0.029
			v0.032v0.046v0.029l-0.011,0.027l-0.265,0.662l-0.03,0.075l-0.079,0.017l-0.46,0.102l-0.067,0.145l-0.016,0.033l-0.029,0.022
			l-0.519,0.406l-0.021,0.016l-0.024,0.008l-1.87,0.632l-0.027,0.009l-0.028-0.001l-0.82-0.033c-0.424,0.1-0.865,0.154-1.319,0.154
			c-0.521,0-1.024-0.07-1.503-0.201c0,0-0.001,0-0.001,0c-0.133-0.036-0.264-0.077-0.393-0.123
			c-0.002-0.001-0.005-0.002-0.007-0.002c-0.127-0.045-0.252-0.095-0.375-0.148c-0.004-0.002-0.008-0.004-0.013-0.005
			c-0.121-0.053-0.239-0.11-0.355-0.171c-0.006-0.003-0.012-0.006-0.019-0.01c-0.084-0.045-0.168-0.092-0.25-0.141
			c-0.003-0.002-0.007-0.004-0.01-0.006c-0.025-0.015-0.05-0.03-0.074-0.045c-0.008-0.005-0.016-0.01-0.024-0.015
			c-0.076-0.048-0.151-0.097-0.225-0.148c-0.007-0.005-0.016-0.011-0.023-0.016c-0.022-0.015-0.043-0.031-0.065-0.046
			c-0.01-0.007-0.02-0.015-0.03-0.021c-0.021-0.016-0.043-0.032-0.064-0.048c-0.002-0.001-0.004-0.003-0.006-0.004
			c-0.044-0.034-0.089-0.068-0.132-0.103c-0.011-0.009-0.021-0.017-0.031-0.025c-0.019-0.015-0.038-0.031-0.057-0.047
			c-0.012-0.009-0.023-0.019-0.034-0.029c-0.019-0.016-0.037-0.032-0.056-0.047c-0.006-0.006-0.013-0.011-0.019-0.017
			C4.202,13.065,4.167,13.033,4.131,13c-0.012-0.011-0.024-0.022-0.037-0.034c-0.017-0.016-0.033-0.031-0.049-0.047
			c-0.013-0.012-0.026-0.024-0.038-0.037c-0.016-0.016-0.031-0.031-0.047-0.046c-0.024-0.025-0.049-0.049-0.073-0.075
			c-0.014-0.015-0.028-0.03-0.042-0.045c-0.014-0.014-0.027-0.029-0.04-0.043c-0.014-0.015-0.028-0.03-0.042-0.046
			c-0.014-0.015-0.027-0.031-0.041-0.046c-0.013-0.014-0.026-0.029-0.039-0.044c-0.023-0.027-0.046-0.054-0.069-0.082
			c-0.012-0.015-0.024-0.029-0.036-0.044c-0.013-0.017-0.027-0.034-0.041-0.05c-0.012-0.016-0.024-0.031-0.036-0.046
			c-0.015-0.019-0.029-0.037-0.043-0.056c-0.011-0.015-0.022-0.029-0.033-0.043c-0.021-0.028-0.042-0.057-0.063-0.086
			c-0.01-0.014-0.02-0.029-0.03-0.043c-0.013-0.019-0.026-0.039-0.04-0.058c-0.01-0.015-0.02-0.03-0.03-0.045
			c-0.015-0.022-0.029-0.044-0.043-0.066c-0.01-0.015-0.02-0.03-0.029-0.045c-0.019-0.028-0.036-0.057-0.054-0.086
			c-0.008-0.014-0.017-0.029-0.026-0.043c-0.013-0.021-0.025-0.042-0.037-0.063c-0.009-0.015-0.018-0.03-0.026-0.044
			c-0.015-0.026-0.029-0.052-0.043-0.078c-0.008-0.015-0.017-0.03-0.024-0.045c-0.016-0.028-0.03-0.057-0.045-0.085
			C2.928,11.415,2.92,11.4,2.913,11.385c-0.011-0.023-0.022-0.045-0.034-0.068c-0.007-0.015-0.014-0.029-0.021-0.044
			c-0.015-0.03-0.029-0.061-0.043-0.092c-0.006-0.014-0.012-0.027-0.019-0.041c-0.012-0.028-0.025-0.057-0.037-0.085
			c-0.006-0.015-0.013-0.03-0.019-0.045c-0.01-0.024-0.02-0.048-0.029-0.072c-0.006-0.015-0.012-0.029-0.018-0.044
			c-0.015-0.036-0.028-0.073-0.042-0.109l0,0c-0.226-0.613-0.348-1.275-0.348-1.966c0-2.621,1.769-4.828,4.177-5.494L6.207,2.669
			L6.167,2.573l-0.04-0.097l0.076-0.072l0.076-0.072l0.571-0.544C3.463,2.339,0.878,5.276,0.878,8.818
			c0,3.935,3.19,7.125,7.125,7.125c3.935,0,7.125-3.19,7.125-7.125C15.127,5.797,13.248,3.216,10.594,2.18z"/>
		<g>
			<path fill="#ABBD7F" d="M6.54,3.466L6.521,3.471c-0.579,0.16-1.125,0.413-1.624,0.75c-0.492,0.333-0.925,0.74-1.288,1.21
				C3.242,5.906,2.957,6.433,2.761,6.998c-0.203,0.584-0.306,1.196-0.306,1.82c0,0.639,0.108,1.264,0.32,1.86l0.294-0.25
				l0.002-0.002l0.046-0.054h0.014l0.018-0.013l0.381-0.47c0.204-0.313,0.373-0.644,0.511-0.926L4.904,6.99l0.001-0.001l0-0.001
				c0.139-0.303,0.308-0.658,0.505-1.004l0.015-0.025l0.023-0.019l0.715-0.563l0.792-0.903L6.939,4.424L6.54,3.466z"/>
			<path fill="#ABBD7F" d="M8.003,14.365c0.178,0,0.356-0.009,0.534-0.026l-0.72,0.01l-0.008,0.012
				C7.873,14.364,7.938,14.365,8.003,14.365z"/>
			<path fill="#ABBD7F" d="M12.805,6.423l-0.022,0.069l-0.24,0.751L12.538,7.26l0.087-0.085l0.012,0.012l0.354,0.347l0.008,0.007
				l0.006,0.008l0.066,0.087l0.027,0.035l0.004,0.043l0.096,0.986l0.005,0.048l-0.024,0.042l-0.183,0.319l0.369,0.329l0.029,0.025
				l0.013,0.036l0.073,0.202c0.046-0.292,0.07-0.588,0.07-0.885c0-1.029-0.284-2.035-0.821-2.906
				c-0.077-0.124-0.158-0.244-0.244-0.361L12.46,5.614l-0.066,0.174l0.371,0.574L12.805,6.423z"/>
			<path fill="#ABBD7F" d="M9.821,5.795l0.013-0.002l0.031-0.015l1.303-0.691l0.034-0.018h0.038h0.08h0.025l0.023,0.008l0.999,0.34
				l0.022,0.007c-0.485-0.625-1.099-1.143-1.801-1.514c-0.119,0.223-0.285,0.432-0.493,0.612c-0.101,0.1-0.221,0.183-0.337,0.264
				C9.552,4.929,9.356,5.065,9.263,5.282L9.069,5.721l0.018,0.155L9.821,5.795z"/>
		</g>
	</g>
	<g>
		<path fill="#ABBD7F" d="M143.602,432.261c0.698,0.526,1.402,1.044,2.107,1.562C145.004,433.306,144.3,432.787,143.602,432.261z"/>
		<path fill="#ABBD7F" d="M136.188,426.363c0.618,0.518,1.238,1.031,1.863,1.54C137.426,427.395,136.806,426.881,136.188,426.363z"
			/>
		<path fill="#ABBD7F" d="M146.677,434.528c0.709,0.513,1.421,1.021,2.138,1.524C148.098,435.55,147.387,435.041,146.677,434.528z"
			/>
		<path fill="#ABBD7F" d="M133.249,423.857c0.601,0.524,1.209,1.04,1.817,1.557C134.458,424.897,133.85,424.381,133.249,423.857z"/>
		<path fill="#ABBD7F" d="M126.298,417.475c0.534,0.515,1.07,1.027,1.61,1.535C127.368,418.502,126.832,417.989,126.298,417.475z"/>
		<path fill="#ABBD7F" d="M106.004,394.414c0.355,0.478,0.718,0.949,1.079,1.424C106.723,395.363,106.36,394.892,106.004,394.414z"
			/>
		<path fill="#ABBD7F" d="M108.487,397.669c0.389,0.5,0.781,0.996,1.175,1.492C109.268,398.665,108.875,398.169,108.487,397.669z"/>
		<path fill="#ABBD7F" d="M129.115,420.134c1.156,1.07,2.324,2.126,3.507,3.167C131.439,422.26,130.271,421.204,129.115,420.134z"/>
		<path fill="#ABBD7F" d="M139.077,428.729c1.432,1.151,2.878,2.283,4.344,3.393C141.955,431.014,140.508,429.88,139.077,428.729z"
			/>
		<path fill="#ABBD7F" d="M193.892,459.282c4.23,1.493,8.528,2.837,12.892,4.028C202.42,462.12,198.121,460.774,193.892,459.282z"/>
		<path fill="#ABBD7F" d="M180.957,454.166c-3.958-1.74-7.845-3.613-11.654-5.614C173.112,450.553,176.999,452.426,180.957,454.166z
			"/>
		<path fill="#ABBD7F" d="M181.373,454.348c4.026,1.758,8.126,3.378,12.294,4.855C189.499,457.727,185.399,456.105,181.373,454.348z
			"/>
		<path fill="#ABBD7F" d="M160.502,443.622c2.69,1.604,5.424,3.142,8.2,4.612C165.926,446.765,163.192,445.227,160.502,443.622z"/>
		<path fill="#ABBD7F" d="M157.728,441.936c0.807,0.5,1.617,0.996,2.432,1.484C159.345,442.932,158.535,442.436,157.728,441.936z"/>
		<path fill="#ABBD7F" d="M156.937,441.441c-2.496-1.564-4.951-3.188-7.366-4.864C151.985,438.255,154.441,439.877,156.937,441.441z
			"/>
		<path fill="#ABBD7F" d="M83.454,354.794c0.207,0.495,0.413,0.99,0.624,1.483C83.867,355.784,83.661,355.289,83.454,354.794z"/>
		<path fill="#ABBD7F" d="M112.177,402.264c-0.398-0.479-0.789-0.964-1.182-1.446C111.388,401.3,111.779,401.784,112.177,402.264z"
			/>
		<path fill="#ABBD7F" d="M81.903,350.964c0.19,0.487,0.386,0.971,0.581,1.455C82.29,351.935,82.094,351.451,81.903,350.964z"/>
		<path fill="#ABBD7F" d="M102.95,390.178c0.333,0.475,0.664,0.95,1.002,1.422C103.614,391.128,103.283,390.652,102.95,390.178z"/>
		<path fill="#ABBD7F" d="M115.709,406.386c-0.42-0.478-0.843-0.952-1.258-1.434C114.866,405.434,115.289,405.908,115.709,406.386z"
			/>
		<path fill="#ABBD7F" d="M121.137,412.303c-0.471-0.49-0.934-0.988-1.399-1.484C120.203,411.314,120.666,411.812,121.137,412.303z"
			/>
		<path fill="#ABBD7F" d="M123.519,414.743c0.506,0.509,1.021,1.011,1.533,1.515C124.54,415.754,124.025,415.252,123.519,414.743z"
			/>
		<path fill="#ABBD7F" d="M118.429,409.413c-0.461-0.503-0.921-1.007-1.377-1.514C117.508,408.406,117.967,408.91,118.429,409.413z"
			/>
		<path fill="#ABBD7F" d="M96.501,380.352c-0.289-0.471-0.572-0.946-0.856-1.421C95.929,379.405,96.212,379.88,96.501,380.352z"/>
		<path fill="#ABBD7F" d="M85.299,359.069c0.202,0.452,0.404,0.905,0.609,1.355C85.703,359.975,85.5,359.521,85.299,359.069z"/>
		<path fill="#ABBD7F" d="M100.647,386.824c0.328,0.49,0.66,0.978,0.993,1.465C101.308,387.802,100.976,387.314,100.647,386.824z"/>
		<path fill="#ABBD7F" d="M94.414,376.85c-0.282-0.483-0.563-0.967-0.84-1.453C93.851,375.883,94.132,376.366,94.414,376.85z"/>
		<path fill="#ABBD7F" d="M98.265,383.178c0.312,0.49,0.629,0.978,0.946,1.464C98.895,384.155,98.577,383.668,98.265,383.178z"/>
		<path fill="#ABBD7F" d="M87.312,363.431c0.231,0.484,0.467,0.965,0.703,1.446C87.779,364.396,87.543,363.914,87.312,363.431z"/>
		<path fill="#ABBD7F" d="M91.342,371.366c0.266,0.494,0.535,0.986,0.805,1.478C91.876,372.353,91.607,371.86,91.342,371.366z"/>
		<path fill="#ABBD7F" d="M89.13,367.121c0.244,0.482,0.487,0.966,0.735,1.446C89.617,368.087,89.374,367.604,89.13,367.121z"/>
	</g>
</g>
<g id="Flash_Bulb">
	<path id="Bulb_-_Yellow" fill="#FFCC4E" d="M7.333,4.722C7.963,4.866,8.396,5.13,8.748,5.533l0.165,0.164l0.21-0.476
		c0.169-0.393,0.604-0.548,0.869-0.812c0.388-0.334,0.656-0.801,0.656-1.317c0-0.879-0.573-1.614-1.34-1.797L8.234,0.676
		L6.383,2.442L6.307,2.514l0.041,0.097l0.735,1.76l0.044,0.138l0.049,0.173L7.333,4.722z"/>
	<path id="Bulb_-_Yellow__x28_Light_x29_" fill="#FFEBB8" d="M7.333,4.722C7.963,4.866,8.396,5.13,8.748,5.533l0.165,0.164
		l0.21-0.476c0.169-0.393,0.604-0.548,0.869-0.812c0.388-0.334,0.656-0.801,0.656-1.317c0-0.879-0.573-1.614-1.34-1.797L8.234,0.676
		L6.383,2.442L6.307,2.514l0.041,0.097l0.735,1.76l0.044,0.138l0.049,0.173L7.333,4.722z"/>
	<path id="Bulb_-_White_1_" display="none" fill="#FFFFFF" d="M298.991,36.035c25.158,6.016,43.967,30.137,43.967,58.977
		c0,16.942-8.803,32.251-21.545,43.219c-8.661,8.635-22.939,13.72-28.495,26.62l-6.898,15.631l-5.42-5.384
		c-11.541-13.207-25.765-21.883-46.422-26.625l-3.494-13.102l-24.238-58.084l61.797-58.958L298.991,36.035z"/>
</g>
<g id="Lines_1_">
	<path id="Wrist_Lines" display="none" d="M209.285,488.906l35.595-25.765l-32.539,29.696l-32.1,8.732l-1.528-8.298L209.285,488.906
		z M175.929,403.411l-3.504-7.676l-29.003,16.293l-24.32,36.73l28.242-33.663L175.929,403.411z M155.236,445.887l29.062-24.459
		L152.58,442.5l-14.045,25.095l6.64,3.019L155.236,445.887z"/>
	<g id="Hand_Lines" display="none">
		<path display="inline" d="M421.64,279.529l-7.746,13.502L336.155,321.2l-0.438,0.218h-0.219h-0.436h-1.092l-20.526-2.183
			l-15.723,9.389l-7.643,17.252l10.918,11.136l3.931-3.057l1.311-9.607l-7.206-13.976l10.918,12.446l0.437,1.092l1.311,11.792v0.218
			l-0.874,1.967l-3.93,5.24l1.746,1.965l14.632,0.219l21.617,3.057l69.004-10.918l-68.567,14.193h-2.839l-20.308,11.355
			l-6.987,12.665l20.307,16.377l15.068,5.46l-5.241-6.77l-0.655-1.312l-1.965-20.308l6.552,18.344l10.699,8.079l-3.713,3.931
			l3.494,1.311l27.296-0.655l34.503-8.953l9.389-17.688l-10.48-32.317l13.975,31.662v1.528l-8.69,21.7l-17.514,3.849l-3.275,6.987
			l-17.033,13.321l-61.359,20.744l-48.478-1.965l-30.79,0.438l20.526-2.403l56.775-2.62l56.994-24.894l6.551-5.459l-20.308-0.219
			l13.32,2.84l-23.803,4.803h-17.032l-15.939-9.607l-10.701,16.159l-0.873-35.594h-45.639l36.03-15.505h-36.03l26.641-9.607v-10.918
			l-35.813-12.229l-2.184,1.747l-29.52,6.646l-69.656-6.014l-30.751-32.95l31.881,29.479l67.475,1.092l28.825-3.493l2.838-3.058
			l11.355-41.489l0,0l7.643-17.031h-8.735v-15.286l-17.469-36.468l26.641,19.872l0.873-17.25l-0.655-1.311v-0.873l17.251-24.239
			l-15.723,24.675l2.621,5.023l14.849,22.929l32.974-8.518l66.602-33.409l13.102-19.216l-8.517,26.64l-69.44,30.353l-32.755,6.988
			l1.748,1.747l-11.355,8.734l-1.529,24.895l18.562,10.044l1.092-0.654l-10.044-15.067l-0.656-1.748l-2.184-20.089l8.517-0.873
			l1.31,19.216l10.482,17.032l20.962,3.058l77.303-24.238l7.86-11.792l-1.965-32.1l-1.528-2.402l-11.793-12.229l12.011,11.792
			l2.184,2.838L421.64,279.529z M428.742,307.006l-13.976-12.446l12.446,13.976l4.149,18.779l-20.744,27.95l6.987,4.587
			l18.125-30.571l0.218-2.402l0,0L428.742,307.006z M319.122,190.618l1.529-0.656c0,0,28.824-12.883,43.019-18.997l31.007,13.102
			l3.057-8.08l-32.755-11.137h-2.619l-42.801,22.711l-1.746,0.873l-1.31,0.219l-29.235,3.225l29.453-0.824L319.122,190.618z
			 M321.306,202.628l10.264-8.299l-5.896-6.113l-7.643,9.171l-24.238,17.25L321.306,202.628z M175.438,192.364L175.438,192.364
			c-6.114,10.7-11.355,21.618-16.377,32.536l-28.388,64.855c-5.24,10.699-10.7,21.182-17.25,31.226
			c7.424-9.171,14.194-18.562,20.526-28.388l34.938-60.05c5.678-9.827,12.01-18.998,18.562-28.169l19.434-24.457l0,0l20.526-38.433
			l-28.169,32.099l0,0L175.438,192.364z M100.32,337.142l-55.059,46.767c1.828,3.809,3.755,7.56,5.78,11.25L100.32,337.142z
			 M186.793,377.32l-8.08,2.839l23.583,63.106v0.22l0.437,0.655l0.438,0.437l25.112,15.722l-23.365-17.905L186.793,377.32z
			 M314.319,255.472l-7.425-6.769l-1.092-1.311l-8.08-18.125l6.551,18.999l8.08,9.172L314.319,255.472z M329.167,339.979
			l-1.527-8.734l0.873,8.734c0.219,3.058,0.654,5.896,1.528,8.734l7.642,15.941l2.402-1.31l-8.734-15.286
			C330.478,345.657,329.823,342.818,329.167,339.979z M292.332,89.934l-12.699,8.679l5.769-13.2l-4.322-3.334l-10.315,6.935
			l3.685-7.638l-6.127-4.689l-7.797,19.823l4.951,3.923l10.837-8.242l-5.207,10.324l5.533,4.268l11.751-6.655l-10.478,31.517
			l19.427-38.154L292.332,89.934z M287.268,191.877l15.292,16.52l-8.768,6.24l-5.624,7.736
			c-14.548-14.439-30.06-21.75-33.991-24.511c13.529,3.105,24.292,7.907,33.356,14.555c-16-18.803-35.54-27.87-40.022-31.018
			c13.527,3.104,24.289,7.905,33.353,14.552c-15.999-18.8-35.537-27.867-40.02-31.015c13.528,3.104,24.29,7.905,33.354,14.553
			c-15.999-18.801-35.538-27.869-40.02-31.017c20.657,4.741,34.881,13.418,46.422,26.625l7.318-15.247
			c5.556-12.9,14.211-17.688,23.495-24.62c12.742-10.967,21.545-23.276,21.545-40.219c0-33.368-25.179-55.419-56.238-55.419
			c-11.798,0-22.743,3.64-31.787,9.848c0,0,14-14.848,41.787-14.848c31.06,0,56.238,27.051,56.238,60.419
			c0,16.942-8.803,32.251-21.545,43.219c-8.661,8.635-22.939,13.72-28.495,26.62l-6.898,15.631L287.268,191.877z M321.088,35.141
			l24.457-21.836l2.401,2.839L321.088,35.141z M234.178-2.854l3.275-1.529l13.32,31.445L234.178-2.854z M189.632,34.048
			l20.963,15.068l-22.929-12.01L189.632,34.048z"/>
	</g>
	<g>
		<path d="M13.046,8.716l-0.236,0.411l-2.369,0.858l-0.013,0.007h-0.007h-0.014h-0.033L9.749,9.926L9.27,10.212l-0.233,0.525
			l0.333,0.34l0.12-0.093l0.04-0.293L9.31,10.265l0.333,0.379l0.013,0.033l0.04,0.359v0.007l-0.026,0.06l-0.12,0.16l0.053,0.06
			l0.446,0.006l0.659,0.094l2.103-0.333l-2.09,0.433h-0.086l-0.619,0.346l-0.213,0.386l0.619,0.499l0.459,0.167l-0.16-0.207
			l-0.02-0.04l-0.06-0.619l0.2,0.559l0.326,0.246l-0.113,0.12l0.106,0.04L11.992,13l1.051-0.272l0.286-0.539l-0.319-0.985
			l0.426,0.965v0.046l-0.265,0.662l-0.534,0.117l-0.1,0.213l-0.519,0.406l-1.87,0.632l-1.478-0.06l-0.938,0.014l0.625-0.073
			l1.73-0.08l1.737-0.758l0.2-0.167l-0.619-0.007l0.406,0.087l-0.726,0.146h-0.519l-0.486-0.293l-0.326,0.493l-0.027-1.085H8.338
			l1.098-0.472H8.338l0.812-0.293v-0.333L8.059,10.99l-0.067,0.054l-0.899,0.202L4.97,11.063l-0.937-1.004l0.971,0.898l2.057,0.033
			l0.878-0.106l0.086-0.093l0.346-1.265l0,0l0.233-0.519H8.338V8.542L7.806,7.43l0.812,0.605L8.645,7.51l-0.02-0.04V7.443
			L9.15,6.705L8.671,7.457l0.08,0.153l0.453,0.699l1.005-0.26l2.03-1.018l0.399-0.585l-0.259,0.812l-2.116,0.925L9.263,8.395
			l0.053,0.053L8.97,8.714L8.924,9.473L9.49,9.779l0.033-0.02L9.217,9.3l-0.02-0.053L9.13,8.635L9.39,8.608l0.04,0.586l0.319,0.519
			l0.639,0.093l2.356-0.738l0.239-0.36l-0.06-0.978l-0.047-0.073l-0.359-0.373l0.366,0.359l0.066,0.086L13.046,8.716z M13.263,9.553
			l-0.426-0.379L13.216,9.6l0.126,0.572l-0.632,0.852l0.213,0.14l0.552-0.932l0.006-0.073l0,0L13.263,9.553z M9.922,6.006
			l0.046-0.02c0,0,0.878-0.393,1.311-0.579l0.945,0.399l0.093-0.246L11.32,5.221h-0.08L9.936,5.913L9.882,5.939l-0.04,0.007
			L8.951,6.044l0.898-0.025L9.922,6.006z M9.989,6.372l0.313-0.253l-0.18-0.187l-0.233,0.28L9.15,6.738L9.989,6.372z M5.543,6.059
			L5.543,6.059c-0.187,0.326-0.346,0.659-0.5,0.992L4.179,9.027C4.02,9.354,3.853,9.673,3.653,9.979
			c0.226-0.28,0.433-0.566,0.625-0.865l1.064-1.83c0.173-0.3,0.366-0.579,0.566-0.859L6.501,5.68l0,0l0.625-1.171L6.269,5.487l0,0
			L5.543,6.059z M3.254,10.471l-1.678,1.425c0.056,0.116,0.115,0.23,0.176,0.343L3.254,10.471z M5.889,11.696l-0.246,0.086
			l0.719,1.923v0.007l0.013,0.02l0.014,0.013l0.765,0.479l-0.712-0.546L5.889,11.696z M9.776,7.982L9.55,7.776l-0.034-0.04
			L9.27,7.184l0.2,0.579l0.246,0.28L9.776,7.982z M10.229,10.558l-0.047-0.266l0.027,0.266c0.007,0.093,0.02,0.18,0.046,0.267
			l0.233,0.486l0.073-0.04l-0.266-0.466C10.268,10.731,10.248,10.645,10.229,10.558z M8.951,6.044l0.466,0.503L9.15,6.738
			L8.979,6.974c-0.443-0.44-0.917-0.663-1.036-0.747c0.413,0.095,0.74,0.241,1.017,0.444c-0.487-0.573-1.083-0.85-1.22-0.945
			C8.152,5.82,8.48,5.966,8.756,6.168c-0.488-0.573-1.083-0.849-1.22-0.945c0.413,0.095,0.74,0.241,1.016,0.444
			C8.065,5.094,7.47,4.817,7.333,4.722C7.963,4.866,8.396,5.13,8.748,5.533l0.223-0.465c0.169-0.394,0.433-0.539,0.716-0.75
			c0.388-0.334,0.656-0.709,0.656-1.226c0-1.017-0.767-1.689-1.714-1.689c-0.359,0-0.693,0.111-0.969,0.3
			c0,0,0.427-0.453,1.273-0.453c0.947,0,1.714,0.824,1.714,1.841c0,0.516-0.268,0.983-0.656,1.317
			C9.728,4.672,9.293,4.828,9.124,5.221l-0.21,0.476L8.951,6.044z M9.982,1.268l0.746-0.666l0.073,0.086L9.982,1.268z M7.333,0.109
			l0.1-0.046l0.405,0.958L7.333,0.109z M5.976,1.234l0.639,0.459L5.916,1.327L5.976,1.234z M7.818,2.442L7.424,3.686l0.446-0.908
			l0.113,0.396l0.211,0.025l0.108-0.335l0.059,0.411l0.191,0.021l0.255-0.597L8.574,2.669L8.491,2.914L8.416,2.542L8.25,2.522
			l-0.157,0.41l-0.09-0.46L7.818,2.442z"/>
	</g>
	<g display="none">
		<polygon display="inline" points="270.903,77.356 260.187,88.391 263.212,74.306 258.312,71.9 249.585,80.75 251.675,72.532 
			244.737,69.157 241.043,90.135 246.676,92.994 255.655,82.758 252.608,93.913 258.88,96.994 269.071,88.132 265.079,121.104 
			276.519,79.845 		"/>
	</g>
	<g display="none">
		<polygon display="inline" points="257.628,74.058 245.707,115.182 259.617,85.021 263.639,97.913 270.595,98.583 273.856,87.49 
			276.126,100.915 282.422,101.438 290.289,81.644 282.612,80.875 280.078,88.967 277.294,76.853 271.861,76.329 267.043,89.905 
			263.713,74.888 		"/>
	</g>
	<g id="White_Flash_Lines" display="none">
		<path display="inline" fill="#FFFFFF" d="M351.824,96.833l0.095-0.231l36.146,12.925l-1.175,3.525L351.824,96.833z
			 M173.755,95.203l28.302-5.047l0.059,0.242l-27.422,8.556L173.755,95.203z"/>
		<path display="inline" d="M202.079,90.279l-27.296,8.517l-0.874-3.493L202.079,90.279 M351.877,96.719l36.03,12.884l-1.092,3.276
			L351.877,96.719 M202.035,90.033l-28.17,5.023l-0.264,0.047l0.065,0.26l0.874,3.493l0.064,0.257l0.253-0.079l27.295-8.517
			L202.035,90.033L202.035,90.033z M351.961,96.484l-0.188,0.462l34.938,16.16l0.253,0.117l0.089-0.265l1.092-3.276l0.077-0.232
			l-0.23-0.083L351.961,96.484L351.961,96.484z"/>
	</g>
</g>
</svg>
